<?xml version="1.0" encoding="UTF-8"?>
<svg xmlns="http://www.w3.org/2000/svg" xmlns:xlink="http://www.w3.org/1999/xlink" width="500pt" height="500pt" viewBox="0 0 500 500" version="1.1">
<g id="surface77">
<path style="fill:none;stroke-width:10;stroke-linecap:butt;stroke-linejoin:miter;stroke:rgb(22%,59.6%,14.9%);stroke-opacity:1;stroke-miterlimit:10;" d="M 0 495 L 0.101563 494.964844 L 0.199219 494.902344 L 0.300781 494.820313 L 0.398438 494.722656 L 0.5 494.613281 L 0.601563 494.492188 L 0.699219 494.359375 L 0.800781 494.21875 L 0.898438 494.066406 L 1 493.910156 L 1.101563 493.742188 L 1.199219 493.566406 L 1.300781 493.386719 L 1.398438 493.199219 L 1.5 493.003906 L 1.601563 492.800781 L 1.699219 492.59375 L 1.800781 492.382813 L 1.898438 492.160156 L 2 491.9375 L 2.101563 491.707031 L 2.199219 491.472656 L 2.402344 490.988281 L 2.5 490.738281 L 2.601563 490.484375 L 2.699219 490.222656 L 2.800781 489.960938 L 2.902344 489.691406 L 3 489.417969 L 3.101563 489.140625 L 3.199219 488.863281 L 3.300781 488.578125 L 3.402344 488.289063 L 3.5 487.996094 L 3.601563 487.699219 L 3.699219 487.398438 L 3.902344 486.789063 L 4 486.476563 L 4.101563 486.160156 L 4.199219 485.84375 L 4.300781 485.523438 L 4.402344 485.199219 L 4.5 484.871094 L 4.601563 484.539063 L 4.699219 484.203125 L 4.800781 483.867188 L 4.902344 483.527344 L 5 483.183594 L 5.101563 482.835938 L 5.199219 482.488281 L 5.300781 482.136719 L 5.402344 481.78125 L 5.5 481.421875 L 5.601563 481.0625 L 5.699219 480.699219 L 5.902344 479.964844 L 6 479.59375 L 6.101563 479.21875 L 6.203125 478.839844 L 6.300781 478.460938 L 6.402344 478.082031 L 6.5 477.695313 L 6.703125 476.921875 L 6.800781 476.53125 L 6.902344 476.136719 L 7 475.742188 L 7.101563 475.34375 L 7.203125 474.941406 L 7.300781 474.539063 L 7.402344 474.132813 L 7.5 473.726563 L 7.703125 472.90625 L 7.800781 472.492188 L 7.902344 472.078125 L 8 471.660156 L 8.101563 471.242188 L 8.203125 470.820313 L 8.300781 470.394531 L 8.402344 469.96875 L 8.5 469.542969 L 8.601563 469.113281 L 8.703125 468.679688 L 8.800781 468.246094 L 8.902344 467.8125 L 9 467.375 L 9.101563 466.9375 L 9.203125 466.496094 L 9.300781 466.054688 L 9.402344 465.609375 L 9.5 465.164063 L 9.703125 464.265625 L 9.800781 463.816406 L 10.003906 462.910156 L 10.101563 462.453125 L 10.203125 461.996094 L 10.300781 461.535156 L 10.503906 460.613281 L 10.601563 460.148438 L 10.703125 459.683594 L 10.800781 459.214844 L 11.003906 458.277344 L 11.101563 457.804688 L 11.203125 457.332031 L 11.300781 456.859375 L 11.503906 455.90625 L 11.601563 455.429688 L 11.703125 454.949219 L 11.800781 454.464844 L 11.902344 453.984375 L 12.003906 453.5 L 12.101563 453.015625 L 12.203125 452.527344 L 12.300781 452.039063 L 12.402344 451.550781 L 12.503906 451.058594 L 12.601563 450.566406 L 12.703125 450.074219 L 12.800781 449.582031 L 13.003906 448.589844 L 13.101563 448.089844 L 13.203125 447.589844 L 13.300781 447.089844 L 13.402344 446.589844 L 13.503906 446.085938 L 13.601563 445.582031 L 13.703125 445.078125 L 13.804688 444.570313 L 13.902344 444.0625 L 14.003906 443.554688 L 14.101563 443.046875 L 14.304688 442.023438 L 14.402344 441.511719 L 14.503906 441 L 14.601563 440.484375 L 14.804688 439.453125 L 14.902344 438.933594 L 15.003906 438.414063 L 15.101563 437.894531 L 15.203125 437.375 L 15.304688 436.851563 L 15.402344 436.332031 L 15.503906 435.808594 L 15.601563 435.28125 L 15.703125 434.757813 L 15.804688 434.230469 L 15.902344 433.703125 L 16.003906 433.175781 L 16.101563 432.648438 L 16.304688 431.585938 L 16.402344 431.054688 L 16.503906 430.523438 L 16.601563 429.988281 L 16.703125 429.453125 L 16.804688 428.921875 L 16.902344 428.382813 L 17.003906 427.847656 L 17.101563 427.3125 L 17.304688 426.234375 L 17.402344 425.695313 L 17.503906 425.152344 L 17.605469 424.613281 L 17.703125 424.070313 L 17.804688 423.527344 L 17.902344 422.984375 L 18.003906 422.441406 L 18.105469 421.894531 L 18.203125 421.351563 L 18.304688 420.804688 L 18.402344 420.257813 L 18.503906 419.710938 L 18.605469 419.160156 L 18.703125 418.613281 L 18.804688 418.0625 L 18.902344 417.511719 L 19.105469 416.410156 L 19.203125 415.859375 L 19.304688 415.304688 L 19.402344 414.753906 L 19.605469 413.644531 L 19.703125 413.089844 L 19.804688 412.53125 L 19.902344 411.976563 L 20.003906 411.417969 L 20.105469 410.863281 L 20.203125 410.304688 L 20.304688 409.746094 L 20.402344 409.1875 L 20.503906 408.625 L 20.605469 408.066406 L 20.703125 407.503906 L 20.804688 406.945313 L 20.902344 406.382813 L 21.105469 405.257813 L 21.203125 404.695313 L 21.304688 404.128906 L 21.402344 403.566406 L 21.503906 403 L 21.605469 402.4375 L 21.703125 401.871094 L 21.90625 400.738281 L 22.003906 400.171875 L 22.105469 399.605469 L 22.203125 399.035156 L 22.304688 398.46875 L 22.40625 397.898438 L 22.503906 397.332031 L 22.605469 396.761719 L 22.703125 396.191406 L 22.90625 395.050781 L 23.003906 394.480469 L 23.105469 393.90625 L 23.203125 393.335938 L 23.304688 392.761719 L 23.40625 392.191406 L 23.503906 391.617188 L 23.605469 391.042969 L 23.703125 390.472656 L 23.90625 389.324219 L 24.003906 388.75 L 24.105469 388.171875 L 24.203125 387.597656 L 24.304688 387.023438 L 24.40625 386.445313 L 24.503906 385.871094 L 24.605469 385.292969 L 24.703125 384.71875 L 24.90625 383.5625 L 25.003906 382.984375 L 25.105469 382.40625 L 25.203125 381.828125 L 25.40625 380.671875 L 25.503906 380.09375 L 25.605469 379.515625 L 25.707031 378.933594 L 25.804688 378.355469 L 25.90625 377.773438 L 26.003906 377.195313 L 26.105469 376.613281 L 26.207031 376.035156 L 26.304688 375.453125 L 26.40625 374.871094 L 26.503906 374.292969 L 26.707031 373.128906 L 26.804688 372.546875 L 26.90625 371.964844 L 27.003906 371.382813 L 27.207031 370.21875 L 27.304688 369.636719 L 27.40625 369.050781 L 27.503906 368.46875 L 27.707031 367.304688 L 27.804688 366.71875 L 27.90625 366.136719 L 28.003906 365.550781 L 28.105469 364.96875 L 28.207031 364.382813 L 28.304688 363.800781 L 28.40625 363.214844 L 28.503906 362.632813 L 28.605469 362.046875 L 28.707031 361.464844 L 28.804688 360.878906 L 28.90625 360.292969 L 29.003906 359.710938 L 29.207031 358.539063 L 29.304688 357.953125 L 29.40625 357.367188 L 29.507813 356.785156 L 29.605469 356.199219 L 29.707031 355.613281 L 29.804688 355.027344 L 30.007813 353.855469 L 30.105469 353.269531 L 30.207031 352.683594 L 30.304688 352.101563 L 30.507813 350.929688 L 30.605469 350.34375 L 30.707031 349.757813 L 30.804688 349.171875 L 31.007813 348 L 31.105469 347.414063 L 31.207031 346.828125 L 31.304688 346.242188 L 31.507813 345.070313 L 31.605469 344.484375 L 31.707031 343.898438 L 31.804688 343.3125 L 32.007813 342.140625 L 32.105469 341.554688 L 32.207031 340.96875 L 32.304688 340.382813 L 32.507813 339.210938 L 32.605469 338.625 L 32.707031 338.039063 L 32.804688 337.453125 L 33.007813 336.28125 L 33.105469 335.699219 L 33.308594 334.527344 L 33.40625 333.941406 L 33.507813 333.355469 L 33.605469 332.769531 L 33.707031 332.1875 L 33.808594 331.601563 L 33.90625 331.015625 L 34.007813 330.433594 L 34.105469 329.847656 L 34.207031 329.261719 L 34.308594 328.679688 L 34.40625 328.09375 L 34.507813 327.507813 L 34.605469 326.925781 L 34.707031 326.339844 L 34.808594 325.757813 L 34.90625 325.171875 L 35.007813 324.589844 L 35.105469 324.003906 L 35.308594 322.839844 L 35.40625 322.253906 L 35.507813 321.671875 L 35.605469 321.089844 L 35.707031 320.507813 L 35.808594 319.921875 L 35.90625 319.339844 L 36.007813 318.757813 L 36.105469 318.175781 L 36.308594 317.011719 L 36.40625 316.429688 L 36.507813 315.847656 L 36.605469 315.265625 L 36.707031 314.6875 L 36.808594 314.105469 L 36.90625 313.523438 L 37.007813 312.941406 L 37.105469 312.363281 L 37.207031 311.78125 L 37.308594 311.203125 L 37.40625 310.621094 L 37.507813 310.042969 L 37.609375 309.460938 L 37.707031 308.882813 L 37.808594 308.300781 L 37.90625 307.722656 L 38.109375 306.566406 L 38.207031 305.988281 L 38.308594 305.410156 L 38.40625 304.832031 L 38.609375 303.675781 L 38.707031 303.097656 L 38.808594 302.519531 L 38.90625 301.941406 L 39.007813 301.367188 L 39.109375 300.789063 L 39.207031 300.214844 L 39.308594 299.636719 L 39.40625 299.0625 L 39.507813 298.484375 L 39.609375 297.910156 L 39.707031 297.335938 L 39.808594 296.761719 L 39.90625 296.1875 L 40.109375 295.039063 L 40.207031 294.464844 L 40.308594 293.890625 L 40.40625 293.316406 L 40.507813 292.742188 L 40.609375 292.171875 L 40.707031 291.597656 L 40.808594 291.023438 L 40.90625 290.453125 L 41.007813 289.882813 L 41.109375 289.308594 L 41.207031 288.738281 L 41.410156 287.597656 L 41.507813 287.027344 L 41.609375 286.457031 L 41.707031 285.886719 L 41.808594 285.316406 L 41.910156 284.75 L 42.007813 284.179688 L 42.109375 283.609375 L 42.207031 283.042969 L 42.308594 282.472656 L 42.410156 281.90625 L 42.507813 281.339844 L 42.609375 280.773438 L 42.707031 280.207031 L 42.910156 279.074219 L 43.007813 278.507813 L 43.109375 277.941406 L 43.207031 277.375 L 43.308594 276.8125 L 43.410156 276.246094 L 43.507813 275.683594 L 43.609375 275.117188 L 43.707031 274.554688 L 43.910156 273.429688 L 44.007813 272.867188 L 44.109375 272.304688 L 44.207031 271.742188 L 44.308594 271.179688 L 44.410156 270.621094 L 44.507813 270.058594 L 44.609375 269.5 L 44.707031 268.9375 L 44.910156 267.820313 L 45.007813 267.261719 L 45.210938 266.144531 L 45.308594 265.585938 L 45.410156 265.027344 L 45.507813 264.46875 L 45.609375 263.914063 L 45.710938 263.355469 L 45.808594 262.800781 L 45.910156 262.246094 L 46.007813 261.691406 L 46.109375 261.132813 L 46.210938 260.578125 L 46.308594 260.027344 L 46.410156 259.472656 L 46.507813 258.917969 L 46.609375 258.367188 L 46.710938 257.8125 L 46.808594 257.261719 L 46.910156 256.707031 L 47.007813 256.15625 L 47.210938 255.054688 L 47.308594 254.503906 L 47.410156 253.953125 L 47.507813 253.40625 L 47.609375 252.855469 L 47.710938 252.308594 L 47.808594 251.757813 L 47.910156 251.210938 L 48.007813 250.664063 L 48.210938 249.570313 L 48.308594 249.023438 L 48.410156 248.476563 L 48.507813 247.933594 L 48.609375 247.386719 L 48.710938 246.84375 L 48.808594 246.296875 L 49.011719 245.210938 L 49.109375 244.667969 L 49.210938 244.125 L 49.308594 243.585938 L 49.511719 242.5 L 49.609375 241.960938 L 49.710938 241.421875 L 49.808594 240.882813 L 49.910156 240.339844 L 50.011719 239.804688 L 50.109375 239.265625 L 50.210938 238.726563 L 50.308594 238.1875 L 50.410156 237.652344 L 50.511719 237.113281 L 50.609375 236.578125 L 50.710938 236.042969 L 50.808594 235.507813 L 51.011719 234.4375 L 51.109375 233.90625 L 51.210938 233.371094 L 51.308594 232.839844 L 51.410156 232.304688 L 51.511719 231.773438 L 51.609375 231.242188 L 51.710938 230.710938 L 51.808594 230.179688 L 51.910156 229.648438 L 52.011719 229.121094 L 52.109375 228.589844 L 52.210938 228.0625 L 52.308594 227.535156 L 52.410156 227.003906 L 52.511719 226.476563 L 52.609375 225.953125 L 52.8125 224.898438 L 52.910156 224.375 L 53.011719 223.847656 L 53.109375 223.324219 L 53.3125 222.277344 L 53.410156 221.753906 L 53.511719 221.230469 L 53.609375 220.710938 L 53.710938 220.1875 L 53.8125 219.667969 L 53.910156 219.144531 L 54.011719 218.625 L 54.109375 218.105469 L 54.210938 217.585938 L 54.3125 217.070313 L 54.410156 216.550781 L 54.511719 216.035156 L 54.609375 215.515625 L 54.8125 214.484375 L 54.910156 213.96875 L 55.011719 213.453125 L 55.109375 212.9375 L 55.210938 212.425781 L 55.3125 211.910156 L 55.410156 211.398438 L 55.511719 210.886719 L 55.609375 210.375 L 55.8125 209.351563 L 55.910156 208.839844 L 56.011719 208.332031 L 56.109375 207.824219 L 56.210938 207.3125 L 56.3125 206.804688 L 56.410156 206.296875 L 56.511719 205.789063 L 56.609375 205.285156 L 56.710938 204.777344 L 56.8125 204.273438 L 56.910156 203.765625 L 57.113281 202.757813 L 57.210938 202.253906 L 57.3125 201.753906 L 57.410156 201.25 L 57.511719 200.75 L 57.613281 200.246094 L 57.710938 199.746094 L 57.8125 199.246094 L 57.910156 198.746094 L 58.011719 198.246094 L 58.113281 197.75 L 58.210938 197.25 L 58.3125 196.753906 L 58.410156 196.257813 L 58.613281 195.265625 L 58.710938 194.769531 L 58.8125 194.273438 L 58.910156 193.78125 L 59.011719 193.285156 L 59.113281 192.792969 L 59.210938 192.300781 L 59.3125 191.808594 L 59.410156 191.316406 L 59.511719 190.828125 L 59.613281 190.335938 L 59.710938 189.847656 L 59.8125 189.355469 L 59.910156 188.867188 L 60.011719 188.378906 L 60.113281 187.894531 L 60.210938 187.40625 L 60.3125 186.921875 L 60.410156 186.433594 L 60.613281 185.464844 L 60.710938 184.980469 L 60.8125 184.496094 L 60.914063 184.015625 L 61.011719 183.53125 L 61.113281 183.050781 L 61.210938 182.570313 L 61.414063 181.609375 L 61.511719 181.128906 L 61.613281 180.648438 L 61.710938 180.171875 L 61.8125 179.695313 L 61.914063 179.214844 L 62.011719 178.738281 L 62.113281 178.265625 L 62.210938 177.789063 L 62.3125 177.3125 L 62.414063 176.839844 L 62.511719 176.367188 L 62.613281 175.894531 L 62.710938 175.421875 L 62.914063 174.476563 L 63.011719 174.007813 L 63.113281 173.535156 L 63.210938 173.066406 L 63.414063 172.128906 L 63.511719 171.664063 L 63.613281 171.195313 L 63.710938 170.730469 L 63.8125 170.261719 L 63.914063 169.796875 L 64.011719 169.332031 L 64.113281 168.867188 L 64.210938 168.40625 L 64.3125 167.941406 L 64.414063 167.480469 L 64.511719 167.019531 L 64.714844 166.097656 L 64.8125 165.636719 L 64.914063 165.175781 L 65.011719 164.71875 L 65.113281 164.261719 L 65.214844 163.800781 L 65.3125 163.347656 L 65.414063 162.890625 L 65.511719 162.433594 L 65.613281 161.980469 L 65.714844 161.523438 L 65.8125 161.070313 L 65.914063 160.617188 L 66.011719 160.164063 L 66.113281 159.710938 L 66.214844 159.261719 L 66.3125 158.808594 L 66.414063 158.359375 L 66.511719 157.910156 L 66.714844 157.011719 L 66.8125 156.566406 L 66.914063 156.117188 L 67.011719 155.671875 L 67.214844 154.78125 L 67.3125 154.335938 L 67.414063 153.894531 L 67.511719 153.449219 L 67.613281 153.007813 L 67.714844 152.5625 L 67.8125 152.121094 L 67.914063 151.683594 L 68.011719 151.242188 L 68.113281 150.800781 L 68.214844 150.363281 L 68.3125 149.925781 L 68.515625 149.050781 L 68.613281 148.613281 L 68.714844 148.179688 L 68.8125 147.742188 L 69.015625 146.875 L 69.113281 146.441406 L 69.214844 146.007813 L 69.3125 145.574219 L 69.515625 144.714844 L 69.613281 144.285156 L 69.714844 143.855469 L 69.8125 143.425781 L 69.914063 142.996094 L 70.015625 142.570313 L 70.113281 142.140625 L 70.214844 141.714844 L 70.3125 141.289063 L 70.414063 140.867188 L 70.515625 140.441406 L 70.613281 140.015625 L 70.714844 139.59375 L 70.8125 139.171875 L 71.015625 138.328125 L 71.113281 137.90625 L 71.214844 137.488281 L 71.3125 137.070313 L 71.414063 136.648438 L 71.515625 136.230469 L 71.613281 135.816406 L 71.714844 135.398438 L 71.8125 134.980469 L 72.015625 134.152344 L 72.113281 133.738281 L 72.316406 132.910156 L 72.414063 132.5 L 72.515625 132.085938 L 72.613281 131.675781 L 72.816406 130.855469 L 72.914063 130.449219 L 73.015625 130.039063 L 73.113281 129.632813 L 73.316406 128.820313 L 73.414063 128.414063 L 73.515625 128.007813 L 73.613281 127.605469 L 73.714844 127.199219 L 73.816406 126.796875 L 73.914063 126.394531 L 74.015625 125.992188 L 74.113281 125.589844 L 74.316406 124.792969 L 74.414063 124.390625 L 74.515625 123.992188 L 74.613281 123.597656 L 74.816406 122.800781 L 74.914063 122.40625 L 75.015625 122.011719 L 75.113281 121.617188 L 75.316406 120.828125 L 75.414063 120.4375 L 75.515625 120.046875 L 75.613281 119.652344 L 75.714844 119.261719 L 75.816406 118.875 L 75.914063 118.484375 L 76.015625 118.097656 L 76.113281 117.707031 L 76.316406 116.933594 L 76.414063 116.546875 L 76.515625 116.164063 L 76.617188 115.777344 L 76.714844 115.394531 L 76.816406 115.011719 L 76.914063 114.628906 L 77.015625 114.246094 L 77.117188 113.867188 L 77.214844 113.484375 L 77.316406 113.105469 L 77.414063 112.726563 L 77.617188 111.96875 L 77.714844 111.59375 L 77.816406 111.214844 L 77.914063 110.839844 L 78.117188 110.089844 L 78.214844 109.714844 L 78.316406 109.34375 L 78.414063 108.96875 L 78.617188 108.226563 L 78.714844 107.855469 L 78.816406 107.484375 L 78.914063 107.117188 L 79.015625 106.75 L 79.117188 106.378906 L 79.214844 106.011719 L 79.316406 105.648438 L 79.414063 105.28125 L 79.515625 104.914063 L 79.617188 104.550781 L 79.714844 104.1875 L 79.816406 103.824219 L 79.914063 103.460938 L 80.015625 103.101563 L 80.117188 102.738281 L 80.214844 102.378906 L 80.417969 101.660156 L 80.515625 101.300781 L 80.617188 100.941406 L 80.714844 100.585938 L 80.917969 99.875 L 81.015625 99.519531 L 81.117188 99.164063 L 81.214844 98.8125 L 81.316406 98.457031 L 81.417969 98.105469 L 81.515625 97.753906 L 81.617188 97.402344 L 81.714844 97.050781 L 81.917969 96.355469 L 82.015625 96.003906 L 82.117188 95.65625 L 82.214844 95.3125 L 82.417969 94.617188 L 82.515625 94.273438 L 82.617188 93.929688 L 82.714844 93.585938 L 82.816406 93.242188 L 82.917969 92.902344 L 83.015625 92.558594 L 83.117188 92.21875 L 83.214844 91.878906 L 83.417969 91.199219 L 83.515625 90.863281 L 83.617188 90.523438 L 83.714844 90.1875 L 83.917969 89.515625 L 84.015625 89.183594 L 84.117188 88.847656 L 84.21875 88.515625 L 84.316406 88.183594 L 84.417969 87.851563 L 84.515625 87.519531 L 84.617188 87.1875 L 84.71875 86.859375 L 84.816406 86.527344 L 84.917969 86.199219 L 85.015625 85.871094 L 85.117188 85.546875 L 85.21875 85.21875 L 85.316406 84.894531 L 85.417969 84.566406 L 85.515625 84.242188 L 85.617188 83.917969 L 85.71875 83.597656 L 85.816406 83.273438 L 85.917969 82.953125 L 86.015625 82.628906 L 86.117188 82.308594 L 86.21875 81.992188 L 86.316406 81.671875 L 86.417969 81.351563 L 86.515625 81.035156 L 86.71875 80.402344 L 86.816406 80.085938 L 86.917969 79.773438 L 87.015625 79.457031 L 87.21875 78.832031 L 87.316406 78.519531 L 87.417969 78.207031 L 87.515625 77.898438 L 87.617188 77.585938 L 87.71875 77.277344 L 87.816406 76.96875 L 88.019531 76.351563 L 88.117188 76.046875 L 88.21875 75.742188 L 88.316406 75.433594 L 88.417969 75.128906 L 88.519531 74.828125 L 88.617188 74.523438 L 88.71875 74.21875 L 88.816406 73.917969 L 89.019531 73.316406 L 89.117188 73.015625 L 89.21875 72.71875 L 89.316406 72.417969 L 89.519531 71.824219 L 89.617188 71.527344 L 89.71875 71.230469 L 89.816406 70.9375 L 89.917969 70.644531 L 90.019531 70.347656 L 90.117188 70.054688 L 90.21875 69.761719 L 90.316406 69.472656 L 90.417969 69.179688 L 90.519531 68.890625 L 90.617188 68.601563 L 90.71875 68.3125 L 90.816406 68.023438 L 90.917969 67.738281 L 91.019531 67.449219 L 91.117188 67.164063 L 91.21875 66.878906 L 91.316406 66.59375 L 91.417969 66.308594 L 91.519531 66.027344 L 91.617188 65.742188 L 91.820313 65.179688 L 91.917969 64.898438 L 92.019531 64.617188 L 92.117188 64.339844 L 92.21875 64.0625 L 92.320313 63.78125 L 92.417969 63.503906 L 92.519531 63.230469 L 92.617188 62.953125 L 92.71875 62.679688 L 92.820313 62.402344 L 92.917969 62.128906 L 93.019531 61.855469 L 93.117188 61.582031 L 93.21875 61.3125 L 93.320313 61.039063 L 93.417969 60.769531 L 93.519531 60.5 L 93.617188 60.230469 L 93.71875 59.964844 L 93.820313 59.695313 L 93.917969 59.429688 L 94.019531 59.164063 L 94.117188 58.898438 L 94.320313 58.367188 L 94.417969 58.105469 L 94.519531 57.839844 L 94.617188 57.578125 L 94.820313 57.054688 L 94.917969 56.796875 L 95.019531 56.535156 L 95.117188 56.277344 L 95.320313 55.761719 L 95.417969 55.503906 L 95.519531 55.25 L 95.617188 54.992188 L 95.820313 54.484375 L 95.917969 54.230469 L 96.019531 53.980469 L 96.121094 53.726563 L 96.21875 53.476563 L 96.320313 53.226563 L 96.417969 52.976563 L 96.621094 52.476563 L 96.71875 52.230469 L 96.820313 51.980469 L 96.917969 51.734375 L 97.019531 51.488281 L 97.121094 51.246094 L 97.21875 51 L 97.320313 50.757813 L 97.417969 50.511719 L 97.621094 50.027344 L 97.71875 49.789063 L 97.820313 49.546875 L 97.917969 49.308594 L 98.121094 48.832031 L 98.21875 48.59375 L 98.320313 48.355469 L 98.417969 48.121094 L 98.519531 47.882813 L 98.621094 47.648438 L 98.71875 47.414063 L 98.820313 47.179688 L 98.917969 46.949219 L 99.019531 46.714844 L 99.121094 46.484375 L 99.21875 46.253906 L 99.320313 46.023438 L 99.417969 45.792969 L 99.519531 45.5625 L 99.621094 45.335938 L 99.71875 45.109375 L 99.921875 44.65625 L 100.019531 44.429688 L 100.121094 44.203125 L 100.21875 43.980469 L 100.421875 43.535156 L 100.519531 43.3125 L 100.621094 43.089844 L 100.71875 42.871094 L 100.820313 42.648438 L 100.921875 42.429688 L 101.019531 42.210938 L 101.121094 41.992188 L 101.21875 41.777344 L 101.320313 41.558594 L 101.421875 41.34375 L 101.519531 41.128906 L 101.621094 40.914063 L 101.71875 40.699219 L 101.820313 40.484375 L 101.921875 40.273438 L 102.019531 40.0625 L 102.121094 39.851563 L 102.21875 39.640625 L 102.421875 39.21875 L 102.519531 39.011719 L 102.621094 38.804688 L 102.71875 38.597656 L 102.921875 38.183594 L 103.019531 37.976563 L 103.121094 37.773438 L 103.21875 37.570313 L 103.421875 37.164063 L 103.519531 36.960938 L 103.621094 36.761719 L 103.722656 36.558594 L 103.820313 36.359375 L 103.921875 36.160156 L 104.019531 35.960938 L 104.121094 35.765625 L 104.222656 35.566406 L 104.320313 35.371094 L 104.421875 35.175781 L 104.519531 34.980469 L 104.722656 34.589844 L 104.820313 34.398438 L 104.921875 34.203125 L 105.019531 34.011719 L 105.222656 33.628906 L 105.320313 33.441406 L 105.421875 33.25 L 105.519531 33.0625 L 105.722656 32.6875 L 105.820313 32.5 L 105.921875 32.316406 L 106.019531 32.128906 L 106.222656 31.761719 L 106.320313 31.578125 L 106.421875 31.394531 L 106.519531 31.214844 L 106.621094 31.03125 L 106.722656 30.851563 L 106.820313 30.671875 L 106.921875 30.492188 L 107.019531 30.3125 L 107.121094 30.136719 L 107.222656 29.957031 L 107.320313 29.78125 L 107.523438 29.429688 L 107.621094 29.253906 L 107.722656 29.082031 L 107.820313 28.90625 L 108.023438 28.5625 L 108.121094 28.390625 L 108.222656 28.21875 L 108.320313 28.050781 L 108.421875 27.878906 L 108.523438 27.710938 L 108.621094 27.542969 L 108.722656 27.375 L 108.820313 27.210938 L 108.921875 27.042969 L 109.023438 26.878906 L 109.121094 26.714844 L 109.222656 26.546875 L 109.320313 26.386719 L 109.523438 26.058594 L 109.621094 25.898438 L 109.722656 25.738281 L 109.820313 25.578125 L 110.023438 25.257813 L 110.121094 25.101563 L 110.222656 24.941406 L 110.320313 24.785156 L 110.523438 24.472656 L 110.621094 24.320313 L 110.722656 24.164063 L 110.820313 24.011719 L 110.921875 23.855469 L 111.023438 23.703125 L 111.121094 23.554688 L 111.222656 23.402344 L 111.320313 23.25 L 111.523438 22.953125 L 111.621094 22.804688 L 111.824219 22.507813 L 111.921875 22.363281 L 112.023438 22.214844 L 112.121094 22.070313 L 112.324219 21.78125 L 112.421875 21.636719 L 112.523438 21.496094 L 112.621094 21.351563 L 112.824219 21.070313 L 112.921875 20.929688 L 113.023438 20.792969 L 113.121094 20.652344 L 113.222656 20.515625 L 113.324219 20.375 L 113.421875 20.238281 L 113.523438 20.101563 L 113.621094 19.96875 L 113.722656 19.832031 L 113.824219 19.699219 L 113.921875 19.566406 L 114.023438 19.429688 L 114.121094 19.300781 L 114.324219 19.035156 L 114.421875 18.90625 L 114.523438 18.773438 L 114.621094 18.644531 L 114.722656 18.515625 L 114.824219 18.390625 L 114.921875 18.261719 L 115.023438 18.136719 L 115.121094 18.007813 L 115.324219 17.757813 L 115.421875 17.632813 L 115.523438 17.511719 L 115.625 17.386719 L 115.722656 17.265625 L 115.824219 17.144531 L 115.921875 17.023438 L 116.125 16.78125 L 116.222656 16.664063 L 116.324219 16.546875 L 116.421875 16.425781 L 116.523438 16.308594 L 116.625 16.195313 L 116.722656 16.078125 L 116.824219 15.960938 L 116.921875 15.847656 L 117.125 15.621094 L 117.222656 15.507813 L 117.324219 15.394531 L 117.421875 15.285156 L 117.523438 15.171875 L 117.625 15.0625 L 117.722656 14.953125 L 117.824219 14.84375 L 117.921875 14.734375 L 118.023438 14.628906 L 118.125 14.519531 L 118.222656 14.414063 L 118.324219 14.308594 L 118.421875 14.203125 L 118.625 13.992188 L 118.722656 13.890625 L 118.824219 13.785156 L 118.921875 13.683594 L 119.324219 13.28125 L 119.425781 13.183594 L 119.523438 13.085938 L 119.625 12.988281 L 119.722656 12.890625 L 119.925781 12.695313 L 120.023438 12.601563 L 120.125 12.507813 L 120.222656 12.414063 L 120.425781 12.226563 L 120.523438 12.132813 L 120.625 12.042969 L 120.722656 11.953125 L 120.824219 11.859375 L 120.925781 11.769531 L 121.023438 11.683594 L 121.125 11.59375 L 121.222656 11.503906 L 121.425781 11.332031 L 121.523438 11.246094 L 121.625 11.160156 L 121.722656 11.074219 L 121.824219 10.988281 L 121.925781 10.90625 L 122.023438 10.824219 L 122.125 10.742188 L 122.222656 10.660156 L 122.425781 10.496094 L 122.523438 10.417969 L 122.625 10.335938 L 122.722656 10.257813 L 122.925781 10.101563 L 123.023438 10.023438 L 123.226563 9.875 L 123.324219 9.796875 L 123.425781 9.722656 L 123.523438 9.648438 L 123.625 9.574219 L 123.726563 9.503906 L 123.824219 9.429688 L 123.925781 9.359375 L 124.023438 9.289063 L 124.226563 9.148438 L 124.324219 9.078125 L 124.425781 9.011719 L 124.523438 8.941406 L 124.726563 8.808594 L 124.824219 8.742188 L 124.925781 8.675781 L 125.023438 8.609375 L 125.226563 8.484375 L 125.324219 8.417969 L 125.425781 8.355469 L 125.523438 8.296875 L 125.726563 8.171875 L 125.824219 8.113281 L 125.925781 8.054688 L 126.023438 7.992188 L 126.125 7.933594 L 126.226563 7.878906 L 126.324219 7.820313 L 126.425781 7.761719 L 126.523438 7.707031 L 126.726563 7.597656 L 126.824219 7.542969 L 126.925781 7.488281 L 127.027344 7.4375 L 127.125 7.382813 L 127.226563 7.332031 L 127.324219 7.28125 L 127.527344 7.179688 L 127.625 7.128906 L 127.726563 7.078125 L 127.824219 7.03125 L 128.027344 6.9375 L 128.125 6.890625 L 128.226563 6.84375 L 128.324219 6.796875 L 128.425781 6.753906 L 128.527344 6.707031 L 128.625 6.664063 L 128.726563 6.621094 L 128.824219 6.578125 L 128.925781 6.535156 L 129.027344 6.496094 L 129.125 6.453125 L 129.226563 6.414063 L 129.324219 6.375 L 129.527344 6.296875 L 129.625 6.257813 L 129.726563 6.222656 L 129.824219 6.183594 L 130.027344 6.113281 L 130.125 6.078125 L 130.226563 6.042969 L 130.324219 6.007813 L 130.425781 5.976563 L 130.527344 5.941406 L 130.625 5.910156 L 130.726563 5.878906 L 130.824219 5.847656 L 131.027344 5.785156 L 131.125 5.757813 L 131.226563 5.726563 L 131.328125 5.699219 L 131.425781 5.671875 L 131.527344 5.644531 L 131.625 5.617188 L 131.726563 5.59375 L 131.828125 5.566406 L 131.925781 5.542969 L 132.027344 5.519531 L 132.125 5.492188 L 132.226563 5.472656 L 132.328125 5.449219 L 132.425781 5.425781 L 132.527344 5.40625 L 132.625 5.382813 L 132.828125 5.34375 L 132.925781 5.324219 L 133.027344 5.304688 L 133.125 5.289063 L 133.226563 5.269531 L 133.328125 5.253906 L 133.425781 5.238281 L 133.527344 5.21875 L 133.625 5.207031 L 133.828125 5.175781 L 133.925781 5.164063 L 134.027344 5.148438 L 134.125 5.136719 L 134.328125 5.113281 L 134.425781 5.101563 L 134.527344 5.09375 L 134.625 5.082031 L 134.726563 5.074219 L 134.828125 5.0625 L 134.925781 5.054688 L 135.027344 5.046875 L 135.128906 5.042969 L 135.226563 5.035156 L 135.328125 5.027344 L 135.425781 5.023438 L 135.628906 5.015625 L 135.726563 5.011719 L 135.828125 5.007813 L 135.925781 5.003906 L 136.027344 5.003906 L 136.128906 5 L 136.628906 5 L 136.726563 5.003906 L 136.828125 5.003906 L 136.925781 5.007813 L 137.128906 5.015625 L 137.226563 5.019531 L 137.328125 5.023438 L 137.425781 5.03125 L 137.527344 5.035156 L 137.628906 5.042969 L 137.726563 5.050781 L 137.828125 5.058594 L 137.925781 5.066406 L 138.027344 5.074219 L 138.128906 5.085938 L 138.226563 5.09375 L 138.328125 5.105469 L 138.425781 5.113281 L 138.628906 5.136719 L 138.726563 5.152344 L 138.929688 5.175781 L 139.027344 5.191406 L 139.128906 5.207031 L 139.226563 5.222656 L 139.429688 5.253906 L 139.527344 5.269531 L 139.628906 5.285156 L 139.726563 5.304688 L 139.828125 5.324219 L 139.929688 5.339844 L 140.027344 5.359375 L 140.128906 5.378906 L 140.226563 5.402344 L 140.429688 5.441406 L 140.527344 5.464844 L 140.628906 5.488281 L 140.726563 5.511719 L 140.929688 5.558594 L 141.027344 5.582031 L 141.128906 5.609375 L 141.226563 5.632813 L 141.429688 5.6875 L 141.527344 5.714844 L 141.628906 5.742188 L 141.726563 5.769531 L 141.828125 5.796875 L 141.929688 5.828125 L 142.027344 5.855469 L 142.128906 5.886719 L 142.226563 5.917969 L 142.429688 5.980469 L 142.527344 6.011719 L 142.628906 6.046875 L 142.730469 6.078125 L 142.828125 6.113281 L 142.929688 6.148438 L 143.027344 6.183594 L 143.230469 6.253906 L 143.328125 6.289063 L 143.429688 6.328125 L 143.527344 6.363281 L 143.730469 6.441406 L 143.828125 6.480469 L 143.929688 6.519531 L 144.027344 6.558594 L 144.128906 6.597656 L 144.230469 6.640625 L 144.328125 6.679688 L 144.429688 6.722656 L 144.527344 6.765625 L 144.730469 6.851563 L 144.828125 6.894531 L 144.929688 6.941406 L 145.027344 6.984375 L 145.230469 7.078125 L 145.328125 7.125 L 145.429688 7.171875 L 145.527344 7.21875 L 145.730469 7.3125 L 145.828125 7.363281 L 145.929688 7.414063 L 146.027344 7.460938 L 146.230469 7.5625 L 146.328125 7.613281 L 146.429688 7.667969 L 146.53125 7.71875 L 146.628906 7.773438 L 146.730469 7.824219 L 146.828125 7.878906 L 147.03125 7.988281 L 147.128906 8.042969 L 147.230469 8.097656 L 147.328125 8.15625 L 147.429688 8.210938 L 147.53125 8.269531 L 147.628906 8.328125 L 147.730469 8.386719 L 147.828125 8.445313 L 148.03125 8.5625 L 148.128906 8.625 L 148.230469 8.683594 L 148.328125 8.746094 L 148.429688 8.808594 L 148.53125 8.867188 L 148.628906 8.929688 L 148.730469 8.996094 L 148.828125 9.058594 L 148.929688 9.121094 L 149.03125 9.1875 L 149.128906 9.25 L 149.230469 9.316406 L 149.328125 9.382813 L 149.53125 9.515625 L 149.628906 9.582031 L 149.730469 9.652344 L 149.828125 9.71875 L 149.929688 9.789063 L 150.03125 9.855469 L 150.128906 9.925781 L 150.230469 9.996094 L 150.328125 10.066406 L 150.429688 10.140625 L 150.53125 10.210938 L 150.628906 10.28125 L 150.832031 10.429688 L 150.929688 10.5 L 151.03125 10.574219 L 151.128906 10.648438 L 151.230469 10.726563 L 151.332031 10.800781 L 151.429688 10.875 L 151.53125 10.953125 L 151.628906 11.027344 L 151.832031 11.183594 L 151.929688 11.261719 L 152.03125 11.339844 L 152.128906 11.417969 L 152.230469 11.5 L 152.332031 11.578125 L 152.429688 11.660156 L 152.53125 11.738281 L 152.628906 11.820313 L 152.832031 11.984375 L 152.929688 12.066406 L 153.03125 12.152344 L 153.128906 12.234375 L 153.230469 12.320313 L 153.332031 12.402344 L 153.429688 12.488281 L 153.53125 12.574219 L 153.628906 12.660156 L 153.832031 12.832031 L 153.929688 12.921875 L 154.03125 13.007813 L 154.128906 13.097656 L 154.230469 13.183594 L 154.332031 13.273438 L 154.429688 13.363281 L 154.632813 13.542969 L 154.730469 13.632813 L 154.832031 13.726563 L 154.929688 13.816406 L 155.03125 13.910156 L 155.132813 14 L 155.230469 14.09375 L 155.332031 14.1875 L 155.429688 14.28125 L 155.53125 14.375 L 155.632813 14.472656 L 155.730469 14.566406 L 155.832031 14.664063 L 155.929688 14.757813 L 156.132813 14.953125 L 156.230469 15.050781 L 156.332031 15.148438 L 156.429688 15.246094 L 156.53125 15.34375 L 157.132813 15.945313 L 157.230469 16.046875 L 157.332031 16.148438 L 157.429688 16.253906 L 157.53125 16.355469 L 157.632813 16.460938 L 157.730469 16.5625 L 157.832031 16.667969 L 157.929688 16.773438 L 158.132813 16.984375 L 158.230469 17.089844 L 158.332031 17.195313 L 158.433594 17.304688 L 158.53125 17.410156 L 158.632813 17.519531 L 158.730469 17.625 L 158.933594 17.84375 L 159.03125 17.953125 L 159.132813 18.0625 L 159.230469 18.175781 L 159.433594 18.394531 L 159.53125 18.507813 L 159.632813 18.621094 L 159.730469 18.730469 L 159.933594 18.957031 L 160.03125 19.070313 L 160.132813 19.1875 L 160.230469 19.300781 L 160.332031 19.414063 L 160.433594 19.53125 L 160.53125 19.648438 L 160.632813 19.761719 L 160.730469 19.878906 L 160.933594 20.113281 L 161.03125 20.230469 L 161.132813 20.351563 L 161.230469 20.46875 L 161.332031 20.585938 L 161.433594 20.707031 L 161.53125 20.828125 L 161.632813 20.945313 L 161.730469 21.066406 L 161.933594 21.308594 L 162.03125 21.433594 L 162.234375 21.675781 L 162.332031 21.800781 L 162.433594 21.925781 L 162.53125 22.046875 L 162.734375 22.296875 L 162.832031 22.421875 L 162.933594 22.546875 L 163.03125 22.671875 L 163.132813 22.800781 L 163.234375 22.925781 L 163.332031 23.054688 L 163.433594 23.179688 L 163.53125 23.308594 L 163.734375 23.566406 L 163.832031 23.695313 L 163.933594 23.824219 L 164.03125 23.953125 L 164.132813 24.085938 L 164.234375 24.214844 L 164.332031 24.347656 L 164.433594 24.476563 L 164.53125 24.609375 L 164.734375 24.875 L 164.832031 25.007813 L 164.933594 25.140625 L 165.03125 25.277344 L 165.234375 25.542969 L 165.332031 25.679688 L 165.433594 25.816406 L 165.53125 25.949219 L 165.734375 26.222656 L 165.832031 26.359375 L 165.933594 26.496094 L 166.035156 26.636719 L 166.132813 26.773438 L 166.234375 26.910156 L 166.332031 27.050781 L 166.433594 27.1875 L 166.535156 27.328125 L 166.632813 27.46875 L 166.734375 27.609375 L 166.832031 27.75 L 167.035156 28.03125 L 167.132813 28.175781 L 167.234375 28.316406 L 167.332031 28.460938 L 167.433594 28.601563 L 167.535156 28.746094 L 167.632813 28.890625 L 167.734375 29.035156 L 167.832031 29.179688 L 168.035156 29.46875 L 168.132813 29.613281 L 168.234375 29.757813 L 168.332031 29.90625 L 168.433594 30.050781 L 168.535156 30.199219 L 168.632813 30.347656 L 168.734375 30.496094 L 168.832031 30.644531 L 169.035156 30.941406 L 169.132813 31.089844 L 169.234375 31.238281 L 169.332031 31.390625 L 169.433594 31.539063 L 169.535156 31.691406 L 169.632813 31.839844 L 169.734375 31.992188 L 169.832031 32.144531 L 170.035156 32.449219 L 170.132813 32.601563 L 170.234375 32.753906 L 170.335938 32.910156 L 170.433594 33.0625 L 170.535156 33.21875 L 170.632813 33.371094 L 170.835938 33.683594 L 170.933594 33.839844 L 171.035156 33.992188 L 171.132813 34.152344 L 171.335938 34.464844 L 171.433594 34.621094 L 171.535156 34.78125 L 171.632813 34.9375 L 171.734375 35.097656 L 171.835938 35.253906 L 171.933594 35.414063 L 172.035156 35.574219 L 172.132813 35.734375 L 172.335938 36.054688 L 172.433594 36.214844 L 172.535156 36.378906 L 172.632813 36.539063 L 172.734375 36.703125 L 172.835938 36.863281 L 172.933594 37.027344 L 173.035156 37.191406 L 173.132813 37.351563 L 173.335938 37.679688 L 173.433594 37.84375 L 173.535156 38.011719 L 173.632813 38.175781 L 173.734375 38.339844 L 173.835938 38.507813 L 173.933594 38.671875 L 174.035156 38.839844 L 174.136719 39.003906 L 174.234375 39.171875 L 174.335938 39.339844 L 174.433594 39.507813 L 174.636719 39.84375 L 174.734375 40.015625 L 174.835938 40.183594 L 174.933594 40.351563 L 175.035156 40.523438 L 175.136719 40.691406 L 175.234375 40.863281 L 175.335938 41.035156 L 175.433594 41.203125 L 175.636719 41.546875 L 175.734375 41.71875 L 175.835938 41.890625 L 175.933594 42.066406 L 176.136719 42.410156 L 176.234375 42.585938 L 176.335938 42.757813 L 176.433594 42.933594 L 176.636719 43.285156 L 176.734375 43.460938 L 176.835938 43.636719 L 176.933594 43.8125 L 177.136719 44.164063 L 177.234375 44.339844 L 177.335938 44.519531 L 177.433594 44.695313 L 177.535156 44.875 L 177.636719 45.050781 L 177.734375 45.230469 L 177.9375 45.589844 L 178.035156 45.769531 L 178.136719 45.949219 L 178.234375 46.128906 L 178.4375 46.488281 L 178.535156 46.671875 L 178.636719 46.851563 L 178.734375 47.035156 L 178.835938 47.214844 L 178.9375 47.398438 L 179.035156 47.582031 L 179.136719 47.761719 L 179.234375 47.945313 L 179.4375 48.3125 L 179.535156 48.496094 L 179.636719 48.683594 L 179.734375 48.867188 L 179.835938 49.050781 L 179.9375 49.238281 L 180.035156 49.421875 L 180.136719 49.609375 L 180.234375 49.796875 L 180.335938 49.980469 L 180.4375 50.167969 L 180.535156 50.355469 L 180.636719 50.542969 L 180.734375 50.730469 L 180.835938 50.917969 L 180.9375 51.109375 L 181.035156 51.296875 L 181.136719 51.484375 L 181.234375 51.675781 L 181.335938 51.863281 L 181.4375 52.054688 L 181.535156 52.246094 L 181.636719 52.433594 L 181.738281 52.625 L 181.835938 52.816406 L 181.9375 53.007813 L 182.035156 53.199219 L 182.238281 53.582031 L 182.335938 53.777344 L 182.4375 53.96875 L 182.535156 54.164063 L 182.636719 54.355469 L 182.738281 54.550781 L 182.835938 54.742188 L 182.9375 54.9375 L 183.035156 55.132813 L 183.238281 55.523438 L 183.335938 55.71875 L 183.4375 55.914063 L 183.535156 56.109375 L 183.738281 56.5 L 183.835938 56.699219 L 183.9375 56.894531 L 184.035156 57.09375 L 184.136719 57.289063 L 184.238281 57.488281 L 184.335938 57.6875 L 184.4375 57.886719 L 184.535156 58.082031 L 184.738281 58.480469 L 184.835938 58.683594 L 184.9375 58.882813 L 185.035156 59.082031 L 185.136719 59.28125 L 185.238281 59.484375 L 185.335938 59.683594 L 185.4375 59.886719 L 185.535156 60.085938 L 185.738281 60.492188 L 185.835938 60.691406 L 186.039063 61.097656 L 186.136719 61.300781 L 186.238281 61.503906 L 186.335938 61.707031 L 186.4375 61.914063 L 186.539063 62.117188 L 186.636719 62.320313 L 186.738281 62.527344 L 186.835938 62.730469 L 186.9375 62.9375 L 187.039063 63.140625 L 187.136719 63.347656 L 187.238281 63.554688 L 187.335938 63.757813 L 187.539063 64.171875 L 187.636719 64.378906 L 187.738281 64.585938 L 187.835938 64.796875 L 188.039063 65.210938 L 188.136719 65.417969 L 188.238281 65.628906 L 188.335938 65.835938 L 188.4375 66.046875 L 188.539063 66.253906 L 188.636719 66.464844 L 188.738281 66.675781 L 188.835938 66.886719 L 189.039063 67.308594 L 189.136719 67.519531 L 189.238281 67.730469 L 189.335938 67.941406 L 189.539063 68.363281 L 189.636719 68.578125 L 189.839844 69 L 189.9375 69.214844 L 190.039063 69.425781 L 190.136719 69.640625 L 190.339844 70.070313 L 190.4375 70.28125 L 190.539063 70.496094 L 190.636719 70.710938 L 190.839844 71.140625 L 190.9375 71.355469 L 191.039063 71.574219 L 191.136719 71.789063 L 191.238281 72.003906 L 191.339844 72.222656 L 191.4375 72.4375 L 191.539063 72.65625 L 191.636719 72.871094 L 191.839844 73.308594 L 191.9375 73.523438 L 192.039063 73.742188 L 192.136719 73.960938 L 192.339844 74.398438 L 192.4375 74.617188 L 192.539063 74.835938 L 192.636719 75.054688 L 192.738281 75.277344 L 192.839844 75.496094 L 192.9375 75.714844 L 193.039063 75.9375 L 193.136719 76.15625 L 193.238281 76.378906 L 193.339844 76.597656 L 193.4375 76.820313 L 193.539063 77.042969 L 193.640625 77.261719 L 193.738281 77.484375 L 193.839844 77.707031 L 193.9375 77.929688 L 194.140625 78.375 L 194.238281 78.597656 L 194.339844 78.820313 L 194.4375 79.046875 L 194.640625 79.492188 L 194.738281 79.71875 L 194.839844 79.941406 L 194.9375 80.167969 L 195.039063 80.390625 L 195.140625 80.617188 L 195.238281 80.839844 L 195.339844 81.066406 L 195.4375 81.292969 L 195.640625 81.746094 L 195.738281 81.972656 L 195.839844 82.199219 L 195.9375 82.425781 L 196.140625 82.878906 L 196.238281 83.105469 L 196.339844 83.335938 L 196.4375 83.5625 L 196.539063 83.789063 L 196.640625 84.019531 L 196.738281 84.246094 L 196.839844 84.476563 L 196.9375 84.707031 L 197.039063 84.933594 L 197.140625 85.164063 L 197.238281 85.394531 L 197.339844 85.625 L 197.441406 85.851563 L 197.539063 86.082031 L 197.640625 86.3125 L 197.738281 86.542969 L 197.839844 86.777344 L 197.941406 87.007813 L 198.039063 87.238281 L 198.140625 87.46875 L 198.238281 87.699219 L 198.339844 87.933594 L 198.441406 88.164063 L 198.539063 88.398438 L 198.640625 88.628906 L 198.738281 88.863281 L 198.839844 89.09375 L 198.941406 89.328125 L 199.039063 89.5625 L 199.140625 89.792969 L 199.238281 90.027344 L 199.441406 90.496094 L 199.539063 90.730469 L 199.640625 90.964844 L 199.738281 91.199219 L 199.941406 91.667969 L 200.039063 91.90625 L 200.140625 92.140625 L 200.238281 92.375 L 200.339844 92.613281 L 200.441406 92.847656 L 200.539063 93.082031 L 200.640625 93.320313 L 200.738281 93.558594 L 200.839844 93.792969 L 200.941406 94.03125 L 201.039063 94.265625 L 201.242188 94.742188 L 201.339844 94.980469 L 201.441406 95.21875 L 201.539063 95.457031 L 201.742188 95.933594 L 201.839844 96.171875 L 201.941406 96.410156 L 202.039063 96.648438 L 202.140625 96.886719 L 202.242188 97.128906 L 202.339844 97.367188 L 202.441406 97.605469 L 202.539063 97.847656 L 202.640625 98.085938 L 202.742188 98.328125 L 202.839844 98.566406 L 202.941406 98.808594 L 203.039063 99.046875 L 203.242188 99.53125 L 203.339844 99.773438 L 203.441406 100.015625 L 203.539063 100.253906 L 203.742188 100.738281 L 203.839844 100.980469 L 203.941406 101.222656 L 204.039063 101.464844 L 204.140625 101.710938 L 204.242188 101.953125 L 204.339844 102.195313 L 204.441406 102.4375 L 204.539063 102.679688 L 204.640625 102.925781 L 204.742188 103.167969 L 204.839844 103.414063 L 204.941406 103.65625 L 205.039063 103.902344 L 205.140625 104.144531 L 205.242188 104.390625 L 205.339844 104.632813 L 205.542969 105.125 L 205.640625 105.371094 L 205.742188 105.617188 L 205.839844 105.859375 L 206.042969 106.351563 L 206.140625 106.597656 L 206.242188 106.84375 L 206.339844 107.089844 L 206.441406 107.335938 L 206.542969 107.585938 L 206.640625 107.832031 L 206.742188 108.078125 L 206.839844 108.324219 L 206.941406 108.574219 L 207.042969 108.820313 L 207.140625 109.066406 L 207.242188 109.316406 L 207.339844 109.5625 L 207.441406 109.8125 L 207.542969 110.058594 L 207.640625 110.308594 L 207.742188 110.554688 L 207.839844 110.804688 L 208.042969 111.304688 L 208.140625 111.550781 L 208.242188 111.800781 L 208.339844 112.050781 L 208.542969 112.550781 L 208.640625 112.800781 L 208.742188 113.050781 L 208.839844 113.300781 L 209.042969 113.800781 L 209.140625 114.050781 L 209.242188 114.304688 L 209.34375 114.554688 L 209.441406 114.804688 L 209.542969 115.054688 L 209.640625 115.308594 L 209.742188 115.558594 L 209.84375 115.8125 L 209.941406 116.0625 L 210.042969 116.316406 L 210.140625 116.566406 L 210.242188 116.820313 L 210.34375 117.070313 L 210.441406 117.324219 L 210.542969 117.578125 L 210.640625 117.828125 L 210.84375 118.335938 L 210.941406 118.589844 L 211.042969 118.839844 L 211.140625 119.09375 L 211.34375 119.601563 L 211.441406 119.855469 L 211.542969 120.109375 L 211.640625 120.363281 L 211.742188 120.617188 L 211.84375 120.875 L 211.941406 121.128906 L 212.042969 121.382813 L 212.140625 121.636719 L 212.242188 121.890625 L 212.34375 122.148438 L 212.441406 122.402344 L 212.542969 122.65625 L 212.640625 122.914063 L 212.742188 123.167969 L 212.84375 123.425781 L 212.941406 123.679688 L 213.042969 123.9375 L 213.144531 124.191406 L 213.242188 124.449219 L 213.34375 124.703125 L 213.441406 124.960938 L 213.644531 125.476563 L 213.742188 125.730469 L 213.84375 125.988281 L 213.941406 126.246094 L 214.144531 126.761719 L 214.242188 127.019531 L 214.34375 127.273438 L 214.441406 127.53125 L 214.644531 128.046875 L 214.742188 128.308594 L 214.84375 128.566406 L 214.941406 128.824219 L 215.144531 129.339844 L 215.242188 129.597656 L 215.34375 129.859375 L 215.441406 130.117188 L 215.644531 130.632813 L 215.742188 130.894531 L 215.84375 131.152344 L 215.941406 131.414063 L 216.144531 131.929688 L 216.242188 132.191406 L 216.34375 132.453125 L 216.441406 132.710938 L 216.542969 132.972656 L 216.644531 133.230469 L 216.742188 133.492188 L 216.84375 133.753906 L 216.945313 134.011719 L 217.042969 134.273438 L 217.144531 134.535156 L 217.242188 134.796875 L 217.34375 135.054688 L 217.445313 135.316406 L 217.542969 135.578125 L 217.644531 135.839844 L 217.742188 136.101563 L 217.945313 136.625 L 218.042969 136.886719 L 218.144531 137.148438 L 218.242188 137.410156 L 218.445313 137.933594 L 218.542969 138.195313 L 218.644531 138.457031 L 218.742188 138.71875 L 218.84375 138.984375 L 218.945313 139.246094 L 219.042969 139.507813 L 219.144531 139.769531 L 219.242188 140.035156 L 219.445313 140.558594 L 219.542969 140.824219 L 219.644531 141.085938 L 219.742188 141.347656 L 219.84375 141.613281 L 219.945313 141.875 L 220.042969 142.140625 L 220.144531 142.402344 L 220.242188 142.667969 L 220.34375 142.929688 L 220.445313 143.195313 L 220.542969 143.460938 L 220.644531 143.722656 L 220.746094 143.988281 L 220.84375 144.253906 L 220.945313 144.515625 L 221.042969 144.78125 L 221.246094 145.3125 L 221.34375 145.574219 L 221.445313 145.839844 L 221.542969 146.105469 L 221.746094 146.636719 L 221.84375 146.902344 L 221.945313 147.167969 L 222.042969 147.429688 L 222.246094 147.960938 L 222.34375 148.226563 L 222.445313 148.492188 L 222.542969 148.757813 L 222.644531 149.027344 L 222.746094 149.292969 L 222.84375 149.558594 L 222.945313 149.824219 L 223.042969 150.089844 L 223.246094 150.621094 L 223.34375 150.890625 L 223.445313 151.15625 L 223.542969 151.421875 L 223.644531 151.6875 L 223.746094 151.957031 L 223.84375 152.222656 L 223.945313 152.488281 L 224.042969 152.757813 L 224.246094 153.289063 L 224.34375 153.558594 L 224.445313 153.824219 L 224.542969 154.09375 L 224.644531 154.359375 L 224.746094 154.628906 L 224.84375 154.894531 L 224.945313 155.164063 L 225.046875 155.429688 L 225.144531 155.699219 L 225.246094 155.964844 L 225.34375 156.234375 L 225.445313 156.5 L 225.546875 156.769531 L 225.644531 157.039063 L 225.746094 157.304688 L 225.84375 157.574219 L 225.945313 157.84375 L 226.046875 158.109375 L 226.144531 158.378906 L 226.246094 158.648438 L 226.34375 158.914063 L 226.546875 159.453125 L 226.644531 159.722656 L 226.746094 159.992188 L 226.84375 160.257813 L 227.046875 160.796875 L 227.144531 161.066406 L 227.246094 161.335938 L 227.34375 161.605469 L 227.546875 162.144531 L 227.644531 162.414063 L 227.746094 162.683594 L 227.84375 162.953125 L 228.046875 163.492188 L 228.144531 163.761719 L 228.246094 164.03125 L 228.34375 164.300781 L 228.546875 164.839844 L 228.644531 165.109375 L 228.847656 165.648438 L 228.945313 165.917969 L 229.046875 166.1875 L 229.144531 166.460938 L 229.347656 167 L 229.445313 167.269531 L 229.546875 167.539063 L 229.644531 167.8125 L 229.847656 168.351563 L 229.945313 168.621094 L 230.046875 168.894531 L 230.144531 169.164063 L 230.246094 169.433594 L 230.347656 169.707031 L 230.445313 169.976563 L 230.546875 170.246094 L 230.644531 170.519531 L 230.847656 171.058594 L 230.945313 171.332031 L 231.046875 171.601563 L 231.144531 171.871094 L 231.246094 172.144531 L 231.347656 172.414063 L 231.445313 172.6875 L 231.546875 172.957031 L 231.644531 173.230469 L 231.847656 173.769531 L 231.945313 174.042969 L 232.046875 174.3125 L 232.144531 174.585938 L 232.246094 174.855469 L 232.347656 175.128906 L 232.445313 175.402344 L 232.546875 175.671875 L 232.648438 175.945313 L 232.746094 176.214844 L 232.847656 176.488281 L 232.945313 176.757813 L 233.046875 177.03125 L 233.148438 177.300781 L 233.246094 177.574219 L 233.347656 177.847656 L 233.445313 178.117188 L 233.648438 178.664063 L 233.746094 178.933594 L 233.847656 179.207031 L 233.945313 179.480469 L 234.046875 179.75 L 234.148438 180.023438 L 234.246094 180.296875 L 234.347656 180.566406 L 234.445313 180.839844 L 234.546875 181.113281 L 234.648438 181.382813 L 234.746094 181.65625 L 234.847656 181.929688 L 234.945313 182.203125 L 235.046875 182.472656 L 235.148438 182.746094 L 235.246094 183.019531 L 235.347656 183.292969 L 235.445313 183.5625 L 235.648438 184.109375 L 235.746094 184.382813 L 235.847656 184.652344 L 235.945313 184.925781 L 236.148438 185.472656 L 236.246094 185.746094 L 236.347656 186.015625 L 236.449219 186.289063 L 236.546875 186.5625 L 236.648438 186.835938 L 236.746094 187.109375 L 236.847656 187.382813 L 236.949219 187.652344 L 237.046875 187.925781 L 237.148438 188.199219 L 237.246094 188.472656 L 237.449219 189.019531 L 237.546875 189.292969 L 237.648438 189.5625 L 237.746094 189.835938 L 237.949219 190.382813 L 238.046875 190.65625 L 238.148438 190.929688 L 238.246094 191.203125 L 238.449219 191.75 L 238.546875 192.023438 L 238.648438 192.292969 L 238.746094 192.566406 L 238.949219 193.113281 L 239.046875 193.386719 L 239.148438 193.660156 L 239.246094 193.933594 L 239.449219 194.480469 L 239.546875 194.753906 L 239.648438 195.027344 L 239.746094 195.300781 L 239.847656 195.574219 L 239.949219 195.84375 L 240.046875 196.117188 L 240.25 196.664063 L 240.347656 196.9375 L 240.449219 197.210938 L 240.546875 197.484375 L 240.75 198.03125 L 240.847656 198.304688 L 240.949219 198.578125 L 241.046875 198.851563 L 241.25 199.398438 L 241.347656 199.671875 L 241.449219 199.945313 L 241.546875 200.21875 L 241.648438 200.488281 L 241.75 200.761719 L 241.847656 201.035156 L 241.949219 201.308594 L 242.046875 201.582031 L 242.25 202.128906 L 242.347656 202.402344 L 242.449219 202.675781 L 242.546875 202.949219 L 242.75 203.496094 L 242.847656 203.769531 L 242.949219 204.042969 L 243.046875 204.316406 L 243.148438 204.589844 L 243.25 204.859375 L 243.347656 205.132813 L 243.449219 205.40625 L 243.546875 205.679688 L 243.75 206.226563 L 243.847656 206.5 L 243.949219 206.773438 L 244.046875 207.046875 L 244.25 207.59375 L 244.347656 207.867188 L 244.449219 208.136719 L 244.550781 208.410156 L 244.648438 208.683594 L 244.75 208.957031 L 244.847656 209.230469 L 245.050781 209.777344 L 245.148438 210.050781 L 245.25 210.324219 L 245.347656 210.59375 L 245.550781 211.140625 L 245.648438 211.414063 L 245.75 211.6875 L 245.847656 211.960938 L 245.949219 212.234375 L 246.050781 212.503906 L 246.148438 212.777344 L 246.25 213.050781 L 246.347656 213.324219 L 246.449219 213.597656 L 246.550781 213.867188 L 246.648438 214.140625 L 246.75 214.414063 L 246.847656 214.6875 L 246.949219 214.960938 L 247.050781 215.230469 L 247.148438 215.503906 L 247.25 215.777344 L 247.347656 216.050781 L 247.449219 216.324219 L 247.550781 216.59375 L 247.648438 216.867188 L 247.75 217.140625 L 247.847656 217.414063 L 247.949219 217.683594 L 248.050781 217.957031 L 248.148438 218.230469 L 248.25 218.5 L 248.351563 218.773438 L 248.449219 219.046875 L 248.550781 219.320313 L 248.648438 219.589844 L 248.851563 220.136719 L 248.949219 220.40625 L 249.050781 220.679688 L 249.148438 220.953125 L 249.25 221.222656 L 249.351563 221.496094 L 249.449219 221.765625 L 249.550781 222.039063 L 249.648438 222.3125 L 249.75 222.582031 L 249.851563 222.855469 L 249.949219 223.125 L 250.050781 223.398438 L 250.148438 223.671875 L 250.25 223.941406 L 250.351563 224.214844 L 250.449219 224.484375 L 250.550781 224.757813 L 250.648438 225.027344 L 250.75 225.300781 L 250.851563 225.570313 L 250.949219 225.84375 L 251.050781 226.113281 L 251.148438 226.386719 L 251.25 226.65625 L 251.351563 226.929688 L 251.449219 227.199219 L 251.550781 227.472656 L 251.648438 227.742188 L 251.75 228.015625 L 251.851563 228.285156 L 251.949219 228.554688 L 252.050781 228.828125 L 252.152344 229.097656 L 252.25 229.371094 L 252.351563 229.640625 L 252.449219 229.910156 L 252.550781 230.183594 L 252.652344 230.453125 L 252.75 230.722656 L 252.851563 230.996094 L 252.949219 231.265625 L 253.152344 231.804688 L 253.25 232.078125 L 253.351563 232.347656 L 253.449219 232.617188 L 253.550781 232.886719 L 253.652344 233.160156 L 253.75 233.429688 L 253.851563 233.699219 L 253.949219 233.96875 L 254.050781 234.238281 L 254.152344 234.511719 L 254.25 234.78125 L 254.351563 235.050781 L 254.449219 235.320313 L 254.652344 235.859375 L 254.75 236.128906 L 254.851563 236.398438 L 254.949219 236.667969 L 255.152344 237.207031 L 255.25 237.476563 L 255.351563 237.746094 L 255.449219 238.015625 L 255.652344 238.554688 L 255.75 238.824219 L 255.953125 239.363281 L 256.050781 239.632813 L 256.152344 239.902344 L 256.25 240.171875 L 256.453125 240.710938 L 256.550781 240.980469 L 256.652344 241.246094 L 256.75 241.515625 L 256.953125 242.054688 L 257.050781 242.324219 L 257.152344 242.589844 L 257.25 242.859375 L 257.453125 243.398438 L 257.550781 243.664063 L 257.652344 243.933594 L 257.75 244.203125 L 257.851563 244.46875 L 257.953125 244.738281 L 258.050781 245.003906 L 258.152344 245.273438 L 258.25 245.542969 L 258.351563 245.808594 L 258.453125 246.078125 L 258.550781 246.34375 L 258.652344 246.613281 L 258.75 246.878906 L 258.851563 247.148438 L 258.953125 247.414063 L 259.050781 247.683594 L 259.152344 247.949219 L 259.25 248.21875 L 259.351563 248.484375 L 259.453125 248.753906 L 259.550781 249.019531 L 259.652344 249.285156 L 259.75 249.554688 L 259.953125 250.085938 L 260.050781 250.355469 L 260.253906 250.886719 L 260.351563 251.152344 L 260.453125 251.421875 L 260.550781 251.6875 L 260.753906 252.21875 L 260.851563 252.484375 L 260.953125 252.753906 L 261.050781 253.019531 L 261.253906 253.550781 L 261.351563 253.816406 L 261.453125 254.082031 L 261.550781 254.347656 L 261.753906 254.878906 L 261.851563 255.144531 L 261.953125 255.410156 L 262.050781 255.675781 L 262.253906 256.207031 L 262.351563 256.472656 L 262.453125 256.738281 L 262.550781 257 L 262.753906 257.53125 L 262.851563 257.796875 L 262.953125 258.0625 L 263.050781 258.324219 L 263.253906 258.855469 L 263.351563 259.121094 L 263.453125 259.382813 L 263.550781 259.648438 L 263.652344 259.914063 L 263.753906 260.175781 L 263.851563 260.441406 L 263.953125 260.703125 L 264.054688 260.96875 L 264.152344 261.230469 L 264.253906 261.496094 L 264.351563 261.757813 L 264.453125 262.023438 L 264.554688 262.285156 L 264.652344 262.550781 L 264.753906 262.8125 L 264.851563 263.078125 L 265.054688 263.601563 L 265.152344 263.867188 L 265.253906 264.128906 L 265.351563 264.390625 L 265.453125 264.65625 L 265.554688 264.917969 L 265.652344 265.179688 L 265.753906 265.441406 L 265.851563 265.703125 L 265.953125 265.96875 L 266.054688 266.230469 L 266.152344 266.492188 L 266.253906 266.753906 L 266.351563 267.015625 L 266.554688 267.539063 L 266.652344 267.800781 L 266.753906 268.0625 L 266.851563 268.324219 L 267.054688 268.847656 L 267.152344 269.109375 L 267.253906 269.371094 L 267.351563 269.632813 L 267.453125 269.890625 L 267.554688 270.152344 L 267.652344 270.414063 L 267.753906 270.675781 L 267.855469 270.933594 L 267.953125 271.195313 L 268.054688 271.457031 L 268.152344 271.71875 L 268.253906 271.976563 L 268.355469 272.238281 L 268.453125 272.496094 L 268.554688 272.757813 L 268.652344 273.019531 L 268.753906 273.277344 L 268.855469 273.539063 L 268.953125 273.796875 L 269.054688 274.058594 L 269.152344 274.316406 L 269.253906 274.574219 L 269.355469 274.835938 L 269.453125 275.09375 L 269.554688 275.351563 L 269.652344 275.613281 L 269.855469 276.128906 L 269.953125 276.390625 L 270.054688 276.648438 L 270.152344 276.90625 L 270.355469 277.421875 L 270.453125 277.679688 L 270.554688 277.9375 L 270.652344 278.199219 L 270.855469 278.714844 L 270.953125 278.972656 L 271.054688 279.230469 L 271.152344 279.484375 L 271.355469 280 L 271.453125 280.257813 L 271.65625 280.773438 L 271.753906 281.03125 L 271.855469 281.285156 L 271.953125 281.542969 L 272.054688 281.800781 L 272.15625 282.054688 L 272.253906 282.3125 L 272.355469 282.570313 L 272.453125 282.824219 L 272.554688 283.082031 L 272.65625 283.335938 L 272.753906 283.59375 L 272.855469 283.851563 L 272.953125 284.105469 L 273.054688 284.359375 L 273.15625 284.617188 L 273.253906 284.871094 L 273.355469 285.128906 L 273.453125 285.382813 L 273.554688 285.636719 L 273.65625 285.894531 L 273.753906 286.148438 L 273.855469 286.402344 L 273.953125 286.65625 L 274.054688 286.910156 L 274.15625 287.167969 L 274.253906 287.421875 L 274.355469 287.675781 L 274.453125 287.929688 L 274.65625 288.4375 L 274.753906 288.691406 L 274.855469 288.945313 L 274.953125 289.199219 L 275.15625 289.707031 L 275.253906 289.957031 L 275.457031 290.464844 L 275.554688 290.71875 L 275.65625 290.96875 L 275.753906 291.222656 L 275.957031 291.730469 L 276.054688 291.980469 L 276.15625 292.234375 L 276.253906 292.484375 L 276.355469 292.738281 L 276.457031 292.988281 L 276.554688 293.242188 L 276.65625 293.492188 L 276.753906 293.746094 L 276.957031 294.246094 L 277.054688 294.5 L 277.15625 294.75 L 277.253906 295 L 277.355469 295.253906 L 277.457031 295.503906 L 277.554688 295.753906 L 277.65625 296.003906 L 277.753906 296.253906 L 277.957031 296.753906 L 278.054688 297.003906 L 278.15625 297.253906 L 278.253906 297.503906 L 278.457031 298.003906 L 278.554688 298.253906 L 278.65625 298.503906 L 278.753906 298.753906 L 278.855469 299.003906 L 278.957031 299.25 L 279.054688 299.5 L 279.15625 299.75 L 279.253906 299.996094 L 279.457031 300.496094 L 279.554688 300.742188 L 279.65625 300.992188 L 279.757813 301.238281 L 279.855469 301.488281 L 279.957031 301.734375 L 280.054688 301.984375 L 280.257813 302.476563 L 280.355469 302.726563 L 280.457031 302.972656 L 280.554688 303.21875 L 280.65625 303.46875 L 280.757813 303.714844 L 280.855469 303.960938 L 280.957031 304.207031 L 281.054688 304.453125 L 281.257813 304.945313 L 281.355469 305.191406 L 281.457031 305.4375 L 281.554688 305.683594 L 281.757813 306.175781 L 281.855469 306.421875 L 281.957031 306.667969 L 282.054688 306.914063 L 282.15625 307.15625 L 282.257813 307.402344 L 282.355469 307.648438 L 282.457031 307.894531 L 282.554688 308.136719 L 282.65625 308.382813 L 282.757813 308.625 L 282.855469 308.871094 L 282.957031 309.113281 L 283.054688 309.359375 L 283.15625 309.601563 L 283.257813 309.847656 L 283.355469 310.089844 L 283.457031 310.332031 L 283.558594 310.578125 L 283.65625 310.820313 L 283.757813 311.0625 L 283.855469 311.304688 L 283.957031 311.550781 L 284.058594 311.792969 L 284.15625 312.035156 L 284.257813 312.277344 L 284.355469 312.519531 L 284.558594 313.003906 L 284.65625 313.246094 L 284.757813 313.488281 L 284.855469 313.730469 L 284.957031 313.96875 L 285.058594 314.210938 L 285.15625 314.453125 L 285.257813 314.695313 L 285.355469 314.933594 L 285.558594 315.417969 L 285.65625 315.65625 L 285.757813 315.898438 L 285.855469 316.136719 L 285.957031 316.378906 L 286.058594 316.617188 L 286.15625 316.859375 L 286.257813 317.097656 L 286.355469 317.339844 L 286.558594 317.816406 L 286.65625 318.054688 L 286.757813 318.296875 L 286.855469 318.535156 L 287.058594 319.011719 L 287.15625 319.25 L 287.359375 319.726563 L 287.457031 319.964844 L 287.558594 320.203125 L 287.65625 320.441406 L 287.859375 320.917969 L 287.957031 321.15625 L 288.058594 321.390625 L 288.15625 321.628906 L 288.257813 321.867188 L 288.359375 322.101563 L 288.457031 322.339844 L 288.558594 322.578125 L 288.65625 322.8125 L 288.757813 323.050781 L 288.859375 323.285156 L 288.957031 323.523438 L 289.058594 323.757813 L 289.15625 323.992188 L 289.257813 324.230469 L 289.359375 324.464844 L 289.457031 324.699219 L 289.558594 324.9375 L 289.65625 325.171875 L 289.859375 325.640625 L 289.957031 325.875 L 290.058594 326.109375 L 290.15625 326.34375 L 290.359375 326.8125 L 290.457031 327.046875 L 290.558594 327.28125 L 290.65625 327.515625 L 290.757813 327.75 L 290.859375 327.980469 L 290.957031 328.214844 L 291.058594 328.449219 L 291.160156 328.679688 L 291.257813 328.914063 L 291.359375 329.144531 L 291.457031 329.378906 L 291.558594 329.613281 L 291.660156 329.84375 L 291.757813 330.074219 L 291.859375 330.308594 L 291.957031 330.539063 L 292.058594 330.769531 L 292.160156 331.003906 L 292.257813 331.234375 L 292.359375 331.464844 L 292.457031 331.695313 L 292.558594 331.925781 L 292.660156 332.160156 L 292.757813 332.390625 L 292.859375 332.621094 L 292.957031 332.851563 L 293.058594 333.082031 L 293.160156 333.308594 L 293.257813 333.539063 L 293.359375 333.769531 L 293.457031 334 L 293.558594 334.230469 L 293.660156 334.457031 L 293.757813 334.6875 L 293.859375 334.917969 L 293.957031 335.144531 L 294.058594 335.375 L 294.160156 335.601563 L 294.257813 335.832031 L 294.359375 336.058594 L 294.457031 336.289063 L 294.660156 336.742188 L 294.757813 336.972656 L 294.960938 337.425781 L 295.058594 337.652344 L 295.160156 337.878906 L 295.257813 338.105469 L 295.359375 338.335938 L 295.460938 338.5625 L 295.558594 338.789063 L 295.660156 339.011719 L 295.757813 339.238281 L 295.960938 339.691406 L 296.058594 339.917969 L 296.160156 340.144531 L 296.257813 340.367188 L 296.460938 340.820313 L 296.558594 341.042969 L 296.660156 341.269531 L 296.757813 341.492188 L 296.859375 341.71875 L 296.960938 341.941406 L 297.058594 342.167969 L 297.160156 342.390625 L 297.257813 342.613281 L 297.359375 342.835938 L 297.460938 343.0625 L 297.558594 343.285156 L 297.660156 343.507813 L 297.757813 343.730469 L 297.960938 344.175781 L 298.058594 344.398438 L 298.160156 344.621094 L 298.257813 344.84375 L 298.460938 345.289063 L 298.558594 345.511719 L 298.660156 345.730469 L 298.757813 345.953125 L 298.859375 346.175781 L 298.960938 346.394531 L 299.058594 346.617188 L 299.160156 346.839844 L 299.261719 347.058594 L 299.359375 347.28125 L 299.460938 347.5 L 299.558594 347.71875 L 299.660156 347.941406 L 299.761719 348.160156 L 299.859375 348.378906 L 299.960938 348.601563 L 300.058594 348.820313 L 300.261719 349.257813 L 300.359375 349.476563 L 300.460938 349.695313 L 300.558594 349.914063 L 300.761719 350.351563 L 300.859375 350.570313 L 300.960938 350.789063 L 301.058594 351.003906 L 301.261719 351.441406 L 301.359375 351.660156 L 301.460938 351.875 L 301.558594 352.09375 L 301.660156 352.308594 L 301.761719 352.527344 L 301.859375 352.742188 L 301.960938 352.960938 L 302.058594 353.175781 L 302.160156 353.390625 L 302.261719 353.609375 L 302.359375 353.824219 L 302.460938 354.039063 L 302.558594 354.253906 L 302.761719 354.683594 L 302.859375 354.898438 L 303.0625 355.328125 L 303.160156 355.542969 L 303.261719 355.757813 L 303.359375 355.972656 L 303.5625 356.402344 L 303.660156 356.613281 L 303.761719 356.828125 L 303.859375 357.042969 L 303.960938 357.253906 L 304.0625 357.46875 L 304.160156 357.679688 L 304.261719 357.894531 L 304.359375 358.105469 L 304.460938 358.316406 L 304.5625 358.53125 L 304.660156 358.742188 L 304.761719 358.953125 L 304.859375 359.167969 L 305.0625 359.589844 L 305.160156 359.800781 L 305.261719 360.011719 L 305.359375 360.222656 L 305.5625 360.644531 L 305.660156 360.855469 L 305.761719 361.0625 L 305.859375 361.273438 L 306.0625 361.695313 L 306.160156 361.902344 L 306.261719 362.113281 L 306.359375 362.320313 L 306.460938 362.53125 L 306.5625 362.738281 L 306.660156 362.949219 L 306.761719 363.15625 L 306.863281 363.367188 L 306.960938 363.574219 L 307.0625 363.78125 L 307.160156 363.988281 L 307.261719 364.199219 L 307.363281 364.40625 L 307.460938 364.613281 L 307.5625 364.820313 L 307.660156 365.027344 L 307.863281 365.441406 L 307.960938 365.648438 L 308.0625 365.851563 L 308.160156 366.058594 L 308.363281 366.472656 L 308.460938 366.675781 L 308.5625 366.882813 L 308.660156 367.089844 L 308.761719 367.292969 L 308.863281 367.5 L 308.960938 367.703125 L 309.0625 367.90625 L 309.160156 368.113281 L 309.363281 368.519531 L 309.460938 368.726563 L 309.5625 368.929688 L 309.660156 369.132813 L 309.863281 369.539063 L 309.960938 369.742188 L 310.0625 369.945313 L 310.160156 370.148438 L 310.363281 370.554688 L 310.460938 370.753906 L 310.664063 371.160156 L 310.761719 371.363281 L 310.863281 371.5625 L 310.960938 371.765625 L 311.0625 371.964844 L 311.164063 372.167969 L 311.261719 372.367188 L 311.363281 372.570313 L 311.460938 372.769531 L 311.5625 372.96875 L 311.664063 373.171875 L 311.761719 373.371094 L 311.863281 373.570313 L 311.960938 373.769531 L 312.164063 374.167969 L 312.261719 374.367188 L 312.363281 374.566406 L 312.460938 374.765625 L 312.664063 375.164063 L 312.761719 375.359375 L 312.863281 375.558594 L 312.960938 375.757813 L 313.0625 375.957031 L 313.164063 376.152344 L 313.261719 376.351563 L 313.363281 376.546875 L 313.460938 376.746094 L 313.664063 377.136719 L 313.761719 377.335938 L 313.863281 377.53125 L 313.960938 377.726563 L 314.0625 377.921875 L 314.164063 378.121094 L 314.261719 378.316406 L 314.464844 378.707031 L 314.5625 378.902344 L 314.664063 379.097656 L 314.761719 379.292969 L 314.863281 379.484375 L 314.964844 379.679688 L 315.0625 379.875 L 315.164063 380.070313 L 315.261719 380.261719 L 315.363281 380.457031 L 315.464844 380.648438 L 315.5625 380.84375 L 315.664063 381.035156 L 315.761719 381.230469 L 315.863281 381.421875 L 315.964844 381.617188 L 316.0625 381.808594 L 316.164063 382 L 316.261719 382.191406 L 316.363281 382.386719 L 316.464844 382.578125 L 316.5625 382.769531 L 316.664063 382.960938 L 316.761719 383.152344 L 316.964844 383.535156 L 317.0625 383.722656 L 317.164063 383.914063 L 317.261719 384.105469 L 317.363281 384.296875 L 317.464844 384.484375 L 317.5625 384.675781 L 317.664063 384.867188 L 317.761719 385.054688 L 317.863281 385.246094 L 317.964844 385.433594 L 318.0625 385.621094 L 318.164063 385.8125 L 318.261719 386 L 318.464844 386.375 L 318.5625 386.566406 L 318.765625 386.941406 L 318.863281 387.128906 L 318.964844 387.316406 L 319.0625 387.503906 L 319.164063 387.691406 L 319.265625 387.875 L 319.363281 388.0625 L 319.464844 388.25 L 319.5625 388.4375 L 319.664063 388.621094 L 319.765625 388.808594 L 319.863281 388.996094 L 319.964844 389.179688 L 320.0625 389.367188 L 320.265625 389.734375 L 320.363281 389.921875 L 320.464844 390.105469 L 320.5625 390.289063 L 320.664063 390.472656 L 320.765625 390.660156 L 320.863281 390.84375 L 320.964844 391.027344 L 321.0625 391.210938 L 321.265625 391.578125 L 321.363281 391.761719 L 321.464844 391.941406 L 321.5625 392.125 L 321.765625 392.492188 L 321.863281 392.671875 L 321.964844 392.855469 L 322.0625 393.035156 L 322.164063 393.21875 L 322.265625 393.398438 L 322.363281 393.582031 L 322.566406 393.941406 L 322.664063 394.125 L 322.765625 394.304688 L 322.863281 394.484375 L 323.066406 394.84375 L 323.164063 395.023438 L 323.265625 395.203125 L 323.363281 395.382813 L 323.566406 395.742188 L 323.664063 395.921875 L 323.765625 396.101563 L 323.863281 396.277344 L 324.066406 396.636719 L 324.164063 396.8125 L 324.265625 396.992188 L 324.363281 397.167969 L 324.464844 397.347656 L 324.566406 397.523438 L 324.664063 397.703125 L 324.765625 397.878906 L 324.863281 398.054688 L 325.066406 398.40625 L 325.164063 398.585938 L 325.265625 398.761719 L 325.363281 398.9375 L 325.566406 399.289063 L 325.664063 399.460938 L 325.765625 399.636719 L 325.863281 399.8125 L 326.066406 400.164063 L 326.164063 400.335938 L 326.265625 400.511719 L 326.367188 400.683594 L 326.464844 400.859375 L 326.566406 401.03125 L 326.664063 401.207031 L 326.867188 401.550781 L 326.964844 401.726563 L 327.066406 401.898438 L 327.164063 402.070313 L 327.367188 402.414063 L 327.464844 402.585938 L 327.566406 402.757813 L 327.664063 402.929688 L 327.867188 403.273438 L 327.964844 403.445313 L 328.066406 403.617188 L 328.164063 403.785156 L 328.367188 404.128906 L 328.464844 404.296875 L 328.566406 404.46875 L 328.664063 404.636719 L 328.765625 404.808594 L 328.867188 404.976563 L 328.964844 405.144531 L 329.066406 405.316406 L 329.164063 405.484375 L 329.367188 405.820313 L 329.464844 405.988281 L 329.566406 406.15625 L 329.664063 406.324219 L 329.867188 406.660156 L 329.964844 406.828125 L 330.167969 407.164063 L 330.265625 407.332031 L 330.367188 407.496094 L 330.464844 407.664063 L 330.566406 407.828125 L 330.667969 407.996094 L 330.765625 408.160156 L 330.867188 408.328125 L 330.964844 408.492188 L 331.066406 408.660156 L 331.167969 408.824219 L 331.265625 408.988281 L 331.367188 409.152344 L 331.464844 409.320313 L 331.667969 409.648438 L 331.765625 409.8125 L 331.867188 409.976563 L 331.964844 410.140625 L 332.066406 410.304688 L 332.167969 410.464844 L 332.265625 410.628906 L 332.367188 410.792969 L 332.464844 410.957031 L 332.566406 411.117188 L 332.667969 411.28125 L 332.765625 411.441406 L 332.867188 411.605469 L 332.964844 411.765625 L 333.066406 411.929688 L 333.167969 412.089844 L 333.265625 412.253906 L 333.367188 412.414063 L 333.464844 412.574219 L 333.667969 412.894531 L 333.765625 413.054688 L 333.867188 413.214844 L 333.964844 413.375 L 334.167969 413.695313 L 334.265625 413.855469 L 334.46875 414.175781 L 334.566406 414.332031 L 334.667969 414.492188 L 334.765625 414.652344 L 334.867188 414.808594 L 334.96875 414.96875 L 335.066406 415.125 L 335.167969 415.285156 L 335.265625 415.441406 L 335.367188 415.597656 L 335.46875 415.757813 L 335.566406 415.914063 L 335.667969 416.070313 L 335.765625 416.226563 L 335.96875 416.539063 L 336.066406 416.695313 L 336.167969 416.851563 L 336.265625 417.007813 L 336.46875 417.320313 L 336.566406 417.476563 L 336.667969 417.628906 L 336.765625 417.785156 L 336.867188 417.941406 L 336.96875 418.09375 L 337.066406 418.25 L 337.167969 418.402344 L 337.265625 418.558594 L 337.46875 418.863281 L 337.566406 419.019531 L 337.667969 419.171875 L 337.765625 419.324219 L 337.96875 419.628906 L 338.066406 419.78125 L 338.269531 420.085938 L 338.367188 420.238281 L 338.46875 420.390625 L 338.566406 420.542969 L 338.667969 420.695313 L 338.769531 420.84375 L 338.867188 420.996094 L 338.96875 421.148438 L 339.066406 421.296875 L 339.167969 421.449219 L 339.269531 421.597656 L 339.367188 421.75 L 339.46875 421.898438 L 339.566406 422.046875 L 339.667969 422.199219 L 339.769531 422.347656 L 339.867188 422.496094 L 339.96875 422.644531 L 340.066406 422.792969 L 340.167969 422.945313 L 340.269531 423.09375 L 340.367188 423.238281 L 340.46875 423.386719 L 340.566406 423.535156 L 340.769531 423.832031 L 340.867188 423.980469 L 340.96875 424.125 L 341.066406 424.273438 L 341.167969 424.421875 L 341.269531 424.566406 L 341.367188 424.714844 L 341.46875 424.859375 L 341.566406 425.003906 L 341.667969 425.152344 L 341.769531 425.296875 L 341.867188 425.441406 L 341.96875 425.589844 L 342.070313 425.734375 L 342.167969 425.878906 L 342.269531 426.023438 L 342.367188 426.167969 L 342.570313 426.457031 L 342.667969 426.601563 L 342.769531 426.746094 L 342.867188 426.886719 L 343.070313 427.175781 L 343.167969 427.316406 L 343.269531 427.460938 L 343.367188 427.605469 L 343.46875 427.746094 L 343.570313 427.890625 L 343.667969 428.03125 L 343.769531 428.171875 L 343.867188 428.316406 L 344.070313 428.597656 L 344.167969 428.738281 L 344.269531 428.878906 L 344.367188 429.023438 L 344.570313 429.304688 L 344.667969 429.445313 L 344.769531 429.582031 L 344.867188 429.722656 L 345.070313 430.003906 L 345.167969 430.144531 L 345.269531 430.28125 L 345.367188 430.421875 L 345.46875 430.558594 L 345.570313 430.699219 L 345.667969 430.835938 L 345.769531 430.976563 L 345.871094 431.113281 L 345.96875 431.253906 L 346.070313 431.390625 L 346.167969 431.527344 L 346.371094 431.800781 L 346.46875 431.941406 L 346.570313 432.078125 L 346.667969 432.214844 L 346.769531 432.351563 L 346.871094 432.484375 L 346.96875 432.621094 L 347.070313 432.757813 L 347.167969 432.894531 L 347.269531 433.03125 L 347.371094 433.164063 L 347.46875 433.300781 L 347.570313 433.4375 L 347.667969 433.570313 L 347.769531 433.707031 L 347.871094 433.839844 L 347.96875 433.972656 L 348.070313 434.109375 L 348.167969 434.242188 L 348.269531 434.375 L 348.371094 434.511719 L 348.46875 434.644531 L 348.570313 434.777344 L 348.667969 434.910156 L 348.871094 435.175781 L 348.96875 435.308594 L 349.070313 435.441406 L 349.167969 435.574219 L 349.269531 435.703125 L 349.371094 435.835938 L 349.46875 435.96875 L 349.570313 436.097656 L 349.671875 436.230469 L 349.769531 436.363281 L 349.871094 436.492188 L 349.96875 436.625 L 350.171875 436.882813 L 350.269531 437.015625 L 350.371094 437.144531 L 350.46875 437.273438 L 350.570313 437.402344 L 350.671875 437.535156 L 350.769531 437.664063 L 350.871094 437.792969 L 350.96875 437.921875 L 351.171875 438.179688 L 351.269531 438.304688 L 351.371094 438.433594 L 351.46875 438.5625 L 351.570313 438.691406 L 351.671875 438.816406 L 351.769531 438.945313 L 351.871094 439.074219 L 351.96875 439.199219 L 352.070313 439.328125 L 352.171875 439.453125 L 352.269531 439.582031 L 352.371094 439.707031 L 352.46875 439.832031 L 352.570313 439.960938 L 352.671875 440.085938 L 352.769531 440.210938 L 352.871094 440.335938 L 352.96875 440.460938 L 353.171875 440.710938 L 353.269531 440.835938 L 353.371094 440.960938 L 353.46875 441.085938 L 353.570313 441.210938 L 353.671875 441.332031 L 353.769531 441.457031 L 353.871094 441.582031 L 353.972656 441.703125 L 354.070313 441.828125 L 354.171875 441.953125 L 354.269531 442.074219 L 354.371094 442.195313 L 354.472656 442.320313 L 354.570313 442.441406 L 354.671875 442.5625 L 354.769531 442.6875 L 354.972656 442.929688 L 355.070313 443.050781 L 355.171875 443.171875 L 355.269531 443.292969 L 355.472656 443.535156 L 355.570313 443.65625 L 355.671875 443.777344 L 355.769531 443.898438 L 355.871094 444.015625 L 355.972656 444.136719 L 356.070313 444.257813 L 356.171875 444.375 L 356.269531 444.496094 L 356.371094 444.617188 L 356.472656 444.734375 L 356.570313 444.851563 L 356.671875 444.972656 L 356.769531 445.089844 L 356.871094 445.207031 L 356.972656 445.328125 L 357.070313 445.445313 L 357.171875 445.5625 L 357.269531 445.679688 L 357.472656 445.914063 L 357.570313 446.03125 L 357.773438 446.265625 L 357.871094 446.382813 L 357.972656 446.5 L 358.070313 446.613281 L 358.273438 446.847656 L 358.371094 446.960938 L 358.472656 447.078125 L 358.570313 447.195313 L 358.773438 447.421875 L 358.871094 447.539063 L 358.972656 447.652344 L 359.070313 447.765625 L 359.171875 447.882813 L 359.273438 447.996094 L 359.371094 448.109375 L 359.472656 448.222656 L 359.570313 448.335938 L 359.773438 448.5625 L 359.871094 448.675781 L 359.972656 448.789063 L 360.070313 448.902344 L 360.171875 449.015625 L 360.273438 449.125 L 360.371094 449.238281 L 360.472656 449.351563 L 360.570313 449.460938 L 360.773438 449.6875 L 360.871094 449.796875 L 360.972656 449.910156 L 361.070313 450.019531 L 361.171875 450.128906 L 361.273438 450.242188 L 361.371094 450.351563 L 361.574219 450.570313 L 361.671875 450.679688 L 361.773438 450.789063 L 361.871094 450.902344 L 361.972656 451.011719 L 362.074219 451.117188 L 362.171875 451.226563 L 362.273438 451.335938 L 362.371094 451.445313 L 362.574219 451.664063 L 362.671875 451.769531 L 362.773438 451.878906 L 362.871094 451.984375 L 363.074219 452.203125 L 363.171875 452.308594 L 363.273438 452.414063 L 363.371094 452.523438 L 363.574219 452.734375 L 363.671875 452.84375 L 363.773438 452.949219 L 363.871094 453.054688 L 364.074219 453.265625 L 364.171875 453.371094 L 364.273438 453.476563 L 364.371094 453.582031 L 364.574219 453.792969 L 364.671875 453.898438 L 364.773438 454 L 364.871094 454.105469 L 364.972656 454.210938 L 365.074219 454.3125 L 365.171875 454.417969 L 365.273438 454.523438 L 365.375 454.625 L 365.472656 454.726563 L 365.574219 454.832031 L 365.671875 454.933594 L 365.773438 455.039063 L 365.875 455.140625 L 365.972656 455.242188 L 366.074219 455.34375 L 366.171875 455.445313 L 366.273438 455.546875 L 366.375 455.652344 L 366.472656 455.753906 L 366.875 456.15625 L 366.972656 456.257813 L 367.773438 457.058594 L 367.875 457.15625 L 367.972656 457.257813 L 368.074219 457.355469 L 368.171875 457.453125 L 368.273438 457.550781 L 368.472656 457.75 L 368.574219 457.847656 L 368.671875 457.945313 L 368.875 458.140625 L 368.972656 458.238281 L 369.175781 458.433594 L 369.273438 458.527344 L 369.375 458.625 L 369.472656 458.722656 L 369.574219 458.816406 L 369.675781 458.914063 L 369.773438 459.011719 L 369.875 459.105469 L 369.972656 459.203125 L 370.074219 459.296875 L 370.175781 459.394531 L 370.273438 459.488281 L 370.375 459.582031 L 370.472656 459.679688 L 370.675781 459.867188 L 370.773438 459.960938 L 370.875 460.054688 L 370.972656 460.148438 L 371.175781 460.335938 L 371.273438 460.429688 L 371.375 460.523438 L 371.472656 460.617188 L 371.675781 460.804688 L 371.773438 460.898438 L 371.875 460.988281 L 371.972656 461.082031 L 372.074219 461.171875 L 372.175781 461.265625 L 372.273438 461.359375 L 372.375 461.449219 L 372.472656 461.542969 L 372.675781 461.722656 L 372.773438 461.816406 L 372.875 461.90625 L 372.972656 461.996094 L 373.175781 462.175781 L 373.273438 462.269531 L 373.476563 462.449219 L 373.574219 462.539063 L 373.675781 462.628906 L 373.773438 462.714844 L 373.976563 462.894531 L 374.074219 462.984375 L 374.175781 463.074219 L 374.273438 463.160156 L 374.476563 463.339844 L 374.574219 463.425781 L 374.675781 463.515625 L 374.773438 463.601563 L 374.875 463.691406 L 374.976563 463.777344 L 375.074219 463.863281 L 375.175781 463.953125 L 375.273438 464.039063 L 375.476563 464.210938 L 375.574219 464.300781 L 375.675781 464.386719 L 375.773438 464.472656 L 375.976563 464.644531 L 376.074219 464.730469 L 376.175781 464.816406 L 376.273438 464.898438 L 376.476563 465.070313 L 376.574219 465.15625 L 376.675781 465.238281 L 376.773438 465.324219 L 376.875 465.410156 L 376.976563 465.492188 L 377.074219 465.578125 L 377.175781 465.660156 L 377.277344 465.746094 L 377.375 465.828125 L 377.476563 465.914063 L 377.574219 465.996094 L 377.675781 466.078125 L 377.777344 466.164063 L 377.875 466.246094 L 377.976563 466.328125 L 378.074219 466.410156 L 378.277344 466.574219 L 378.375 466.65625 L 378.476563 466.738281 L 378.574219 466.820313 L 378.777344 466.984375 L 378.875 467.066406 L 378.976563 467.144531 L 379.074219 467.226563 L 379.175781 467.308594 L 379.277344 467.386719 L 379.375 467.46875 L 379.476563 467.550781 L 379.574219 467.628906 L 379.675781 467.710938 L 379.777344 467.789063 L 379.875 467.871094 L 379.976563 467.949219 L 380.074219 468.027344 L 380.175781 468.109375 L 380.277344 468.1875 L 380.375 468.265625 L 380.476563 468.34375 L 380.574219 468.421875 L 380.777344 468.578125 L 380.875 468.65625 L 381.078125 468.8125 L 381.175781 468.890625 L 381.277344 468.96875 L 381.375 469.046875 L 381.476563 469.125 L 381.578125 469.199219 L 381.675781 469.277344 L 381.777344 469.355469 L 381.875 469.429688 L 382.078125 469.585938 L 382.175781 469.660156 L 382.277344 469.734375 L 382.375 469.8125 L 382.476563 469.886719 L 382.578125 469.964844 L 382.675781 470.039063 L 382.777344 470.113281 L 382.875 470.1875 L 382.976563 470.265625 L 383.078125 470.339844 L 383.175781 470.414063 L 383.277344 470.488281 L 383.375 470.5625 L 383.578125 470.710938 L 383.675781 470.785156 L 383.777344 470.859375 L 383.875 470.933594 L 383.976563 471.003906 L 384.078125 471.078125 L 384.175781 471.152344 L 384.277344 471.226563 L 384.375 471.296875 L 384.476563 471.371094 L 384.578125 471.441406 L 384.675781 471.515625 L 384.777344 471.585938 L 384.878906 471.660156 L 384.976563 471.730469 L 385.078125 471.804688 L 385.175781 471.875 L 385.277344 471.945313 L 385.378906 472.019531 L 385.476563 472.089844 L 385.578125 472.160156 L 385.675781 472.230469 L 385.878906 472.371094 L 385.976563 472.441406 L 386.078125 472.511719 L 386.175781 472.582031 L 386.378906 472.722656 L 386.476563 472.792969 L 386.578125 472.863281 L 386.675781 472.933594 L 386.777344 473 L 386.878906 473.070313 L 386.976563 473.140625 L 387.078125 473.207031 L 387.175781 473.277344 L 387.277344 473.34375 L 387.378906 473.414063 L 387.476563 473.480469 L 387.578125 473.550781 L 387.675781 473.617188 L 387.777344 473.6875 L 387.878906 473.753906 L 387.976563 473.820313 L 388.078125 473.886719 L 388.175781 473.957031 L 388.378906 474.089844 L 388.476563 474.15625 L 388.679688 474.289063 L 388.777344 474.355469 L 388.878906 474.421875 L 388.976563 474.488281 L 389.179688 474.621094 L 389.277344 474.683594 L 389.378906 474.75 L 389.476563 474.816406 L 389.578125 474.882813 L 389.679688 474.945313 L 389.777344 475.011719 L 389.878906 475.078125 L 389.976563 475.140625 L 390.078125 475.207031 L 390.179688 475.269531 L 390.277344 475.335938 L 390.378906 475.398438 L 390.476563 475.460938 L 390.578125 475.527344 L 390.679688 475.589844 L 390.777344 475.652344 L 390.878906 475.714844 L 390.976563 475.78125 L 391.179688 475.90625 L 391.277344 475.96875 L 391.378906 476.03125 L 391.476563 476.09375 L 391.679688 476.21875 L 391.777344 476.28125 L 391.878906 476.34375 L 391.976563 476.402344 L 392.179688 476.527344 L 392.277344 476.589844 L 392.378906 476.648438 L 392.476563 476.710938 L 392.578125 476.773438 L 392.679688 476.832031 L 392.777344 476.894531 L 392.878906 476.953125 L 392.980469 477.015625 L 393.078125 477.074219 L 393.179688 477.136719 L 393.277344 477.195313 L 393.378906 477.253906 L 393.480469 477.316406 L 393.578125 477.375 L 393.679688 477.433594 L 393.777344 477.492188 L 393.878906 477.550781 L 393.980469 477.613281 L 394.078125 477.671875 L 394.179688 477.730469 L 394.277344 477.789063 L 394.480469 477.90625 L 394.578125 477.964844 L 394.679688 478.019531 L 394.777344 478.078125 L 394.980469 478.195313 L 395.078125 478.253906 L 395.179688 478.308594 L 395.277344 478.367188 L 395.378906 478.425781 L 395.480469 478.480469 L 395.578125 478.539063 L 395.679688 478.59375 L 395.777344 478.652344 L 395.878906 478.707031 L 395.980469 478.765625 L 396.078125 478.820313 L 396.179688 478.875 L 396.277344 478.933594 L 396.480469 479.042969 L 396.578125 479.101563 L 396.78125 479.210938 L 396.878906 479.265625 L 396.980469 479.320313 L 397.078125 479.375 L 397.28125 479.484375 L 397.378906 479.539063 L 397.480469 479.59375 L 397.578125 479.648438 L 397.78125 479.757813 L 397.878906 479.808594 L 397.980469 479.863281 L 398.078125 479.917969 L 398.179688 479.972656 L 398.28125 480.023438 L 398.378906 480.078125 L 398.480469 480.128906 L 398.578125 480.183594 L 398.679688 480.234375 L 398.78125 480.289063 L 398.878906 480.339844 L 398.980469 480.394531 L 399.078125 480.445313 L 399.179688 480.5 L 399.28125 480.550781 L 399.378906 480.601563 L 399.480469 480.652344 L 399.578125 480.707031 L 399.78125 480.808594 L 399.878906 480.859375 L 399.980469 480.910156 L 400.078125 480.960938 L 400.28125 481.0625 L 400.378906 481.113281 L 400.582031 481.214844 L 400.679688 481.265625 L 400.78125 481.316406 L 400.878906 481.367188 L 400.980469 481.414063 L 401.082031 481.464844 L 401.179688 481.515625 L 401.28125 481.5625 L 401.378906 481.613281 L 401.480469 481.664063 L 401.582031 481.710938 L 401.679688 481.761719 L 401.78125 481.808594 L 401.878906 481.859375 L 401.980469 481.90625 L 402.082031 481.957031 L 402.179688 482.003906 L 402.28125 482.050781 L 402.378906 482.101563 L 402.582031 482.195313 L 402.679688 482.242188 L 402.78125 482.292969 L 402.878906 482.339844 L 403.082031 482.433594 L 403.179688 482.480469 L 403.28125 482.527344 L 403.378906 482.574219 L 403.582031 482.667969 L 403.679688 482.714844 L 403.78125 482.761719 L 403.878906 482.808594 L 403.980469 482.851563 L 404.082031 482.898438 L 404.179688 482.945313 L 404.28125 482.992188 L 404.382813 483.035156 L 404.480469 483.082031 L 404.582031 483.128906 L 404.679688 483.171875 L 404.78125 483.21875 L 404.882813 483.261719 L 404.980469 483.308594 L 405.082031 483.351563 L 405.179688 483.398438 L 405.28125 483.441406 L 405.382813 483.488281 L 405.480469 483.53125 L 405.582031 483.574219 L 405.679688 483.621094 L 405.882813 483.707031 L 405.980469 483.75 L 406.082031 483.796875 L 406.179688 483.839844 L 406.382813 483.925781 L 406.480469 483.96875 L 406.582031 484.011719 L 406.679688 484.054688 L 406.882813 484.140625 L 406.980469 484.183594 L 407.082031 484.226563 L 407.179688 484.265625 L 407.382813 484.351563 L 407.480469 484.394531 L 407.582031 484.4375 L 407.679688 484.476563 L 407.882813 484.5625 L 407.980469 484.601563 L 408.082031 484.644531 L 408.179688 484.683594 L 408.28125 484.726563 L 408.382813 484.765625 L 408.480469 484.808594 L 408.582031 484.847656 L 408.683594 484.890625 L 408.78125 484.929688 L 408.882813 484.96875 L 408.980469 485.011719 L 409.183594 485.089844 L 409.28125 485.128906 L 409.382813 485.171875 L 409.480469 485.210938 L 409.683594 485.289063 L 409.78125 485.328125 L 409.882813 485.367188 L 409.980469 485.40625 L 410.183594 485.484375 L 410.28125 485.523438 L 410.382813 485.5625 L 410.480469 485.601563 L 410.683594 485.679688 L 410.78125 485.714844 L 410.882813 485.753906 L 410.980469 485.792969 L 411.082031 485.832031 L 411.183594 485.867188 L 411.28125 485.90625 L 411.382813 485.945313 L 411.480469 485.980469 L 411.582031 486.019531 L 411.683594 486.054688 L 411.78125 486.09375 L 411.882813 486.128906 L 411.980469 486.167969 L 412.082031 486.203125 L 412.183594 486.242188 L 412.28125 486.277344 L 412.382813 486.316406 L 412.484375 486.351563 L 412.582031 486.386719 L 412.683594 486.421875 L 412.78125 486.460938 L 412.984375 486.53125 L 413.082031 486.566406 L 413.183594 486.601563 L 413.28125 486.640625 L 413.484375 486.710938 L 413.582031 486.746094 L 413.683594 486.78125 L 413.78125 486.816406 L 413.984375 486.886719 L 414.082031 486.917969 L 414.183594 486.953125 L 414.28125 486.988281 L 414.484375 487.058594 L 414.582031 487.09375 L 414.683594 487.125 L 414.78125 487.160156 L 414.882813 487.195313 L 414.984375 487.226563 L 415.082031 487.261719 L 415.183594 487.296875 L 415.28125 487.328125 L 415.382813 487.363281 L 415.484375 487.394531 L 415.582031 487.429688 L 415.683594 487.460938 L 415.78125 487.496094 L 415.984375 487.558594 L 416.082031 487.59375 L 416.285156 487.65625 L 416.382813 487.691406 L 416.484375 487.722656 L 416.582031 487.753906 L 416.683594 487.785156 L 416.785156 487.820313 L 416.882813 487.851563 L 416.984375 487.882813 L 417.082031 487.914063 L 417.285156 487.976563 L 417.382813 488.007813 L 417.484375 488.039063 L 417.582031 488.070313 L 417.785156 488.132813 L 417.882813 488.164063 L 417.984375 488.195313 L 418.082031 488.226563 L 418.183594 488.257813 L 418.285156 488.285156 L 418.382813 488.316406 L 418.484375 488.347656 L 418.582031 488.378906 L 418.683594 488.40625 L 418.785156 488.4375 L 418.882813 488.46875 L 418.984375 488.496094 L 419.082031 488.527344 L 419.183594 488.558594 L 419.285156 488.585938 L 419.382813 488.617188 L 419.484375 488.644531 L 419.582031 488.675781 L 419.683594 488.703125 L 419.785156 488.734375 L 419.882813 488.761719 L 419.984375 488.789063 L 420.085938 488.820313 L 420.183594 488.847656 L 420.285156 488.875 L 420.382813 488.90625 L 420.585938 488.960938 L 420.683594 488.992188 L 420.785156 489.019531 L 420.882813 489.046875 L 421.085938 489.101563 L 421.183594 489.128906 L 421.285156 489.15625 L 421.382813 489.183594 L 421.585938 489.238281 L 421.683594 489.265625 L 421.785156 489.292969 L 421.882813 489.320313 L 422.085938 489.375 L 422.183594 489.402344 L 422.285156 489.429688 L 422.382813 489.457031 L 422.484375 489.480469 L 422.585938 489.507813 L 422.683594 489.535156 L 422.785156 489.5625 L 422.882813 489.585938 L 423.085938 489.640625 L 423.183594 489.664063 L 423.285156 489.691406 L 423.382813 489.71875 L 423.484375 489.742188 L 423.585938 489.769531 L 423.683594 489.792969 L 423.785156 489.820313 L 423.886719 489.84375 L 423.984375 489.871094 L 424.085938 489.894531 L 424.183594 489.921875 L 424.386719 489.96875 L 424.484375 489.996094 L 424.585938 490.019531 L 424.683594 490.042969 L 424.785156 490.070313 L 424.886719 490.09375 L 424.984375 490.117188 L 425.085938 490.140625 L 425.183594 490.167969 L 425.386719 490.214844 L 425.484375 490.238281 L 425.585938 490.261719 L 425.683594 490.285156 L 425.886719 490.332031 L 425.984375 490.355469 L 426.085938 490.378906 L 426.183594 490.402344 L 426.386719 490.449219 L 426.484375 490.472656 L 426.585938 490.496094 L 426.683594 490.519531 L 426.785156 490.542969 L 426.886719 490.5625 L 426.984375 490.585938 L 427.085938 490.609375 L 427.183594 490.632813 L 427.285156 490.65625 L 427.386719 490.675781 L 427.484375 490.699219 L 427.585938 490.722656 L 427.683594 490.742188 L 427.886719 490.789063 L 427.984375 490.808594 L 428.085938 490.832031 L 428.1875 490.851563 L 428.285156 490.875 L 428.386719 490.894531 L 428.484375 490.917969 L 428.585938 490.9375 L 428.6875 490.960938 L 428.785156 490.980469 L 428.886719 491.003906 L 428.984375 491.023438 L 429.085938 491.042969 L 429.1875 491.066406 L 429.285156 491.085938 L 429.386719 491.105469 L 429.484375 491.128906 L 429.6875 491.167969 L 429.785156 491.1875 L 429.886719 491.210938 L 429.984375 491.230469 L 430.1875 491.269531 L 430.285156 491.289063 L 430.386719 491.308594 L 430.484375 491.328125 L 430.585938 491.347656 L 430.6875 491.371094 L 430.785156 491.390625 L 430.886719 491.410156 L 430.984375 491.429688 L 431.085938 491.449219 L 431.1875 491.464844 L 431.285156 491.484375 L 431.386719 491.503906 L 431.484375 491.523438 L 431.6875 491.5625 L 431.785156 491.582031 L 431.886719 491.601563 L 431.988281 491.617188 L 432.085938 491.636719 L 432.1875 491.65625 L 432.285156 491.675781 L 432.386719 491.691406 L 432.488281 491.710938 L 432.585938 491.730469 L 432.6875 491.746094 L 432.785156 491.765625 L 432.886719 491.785156 L 432.988281 491.800781 L 433.085938 491.820313 L 433.1875 491.839844 L 433.285156 491.855469 L 433.386719 491.875 L 433.488281 491.890625 L 433.585938 491.910156 L 433.6875 491.925781 L 433.785156 491.945313 L 433.886719 491.960938 L 433.988281 491.980469 L 434.085938 491.996094 L 434.1875 492.011719 L 434.285156 492.03125 L 434.488281 492.0625 L 434.585938 492.082031 L 434.6875 492.097656 L 434.785156 492.113281 L 434.886719 492.132813 L 434.988281 492.148438 L 435.085938 492.164063 L 435.1875 492.179688 L 435.285156 492.195313 L 435.386719 492.214844 L 435.488281 492.230469 L 435.585938 492.246094 L 435.789063 492.277344 L 435.886719 492.292969 L 435.988281 492.308594 L 436.085938 492.324219 L 436.289063 492.355469 L 436.386719 492.371094 L 436.488281 492.386719 L 436.585938 492.402344 L 436.789063 492.433594 L 436.886719 492.449219 L 436.988281 492.464844 L 437.085938 492.480469 L 437.289063 492.511719 L 437.386719 492.527344 L 437.488281 492.539063 L 437.585938 492.554688 L 437.789063 492.585938 L 437.886719 492.601563 L 437.988281 492.613281 L 438.085938 492.628906 L 438.1875 492.644531 L 438.289063 492.65625 L 438.386719 492.671875 L 438.488281 492.6875 L 438.585938 492.699219 L 438.789063 492.730469 L 438.886719 492.742188 L 438.988281 492.757813 L 439.085938 492.769531 L 439.1875 492.785156 L 439.289063 492.796875 L 439.386719 492.8125 L 439.488281 492.824219 L 439.589844 492.839844 L 439.6875 492.851563 L 439.789063 492.867188 L 439.886719 492.878906 L 439.988281 492.894531 L 440.089844 492.90625 L 440.1875 492.917969 L 440.289063 492.933594 L 440.386719 492.945313 L 440.488281 492.960938 L 440.589844 492.972656 L 440.6875 492.984375 L 440.789063 492.996094 L 440.886719 493.011719 L 441.089844 493.035156 L 441.1875 493.050781 L 441.289063 493.0625 L 441.386719 493.074219 L 441.589844 493.097656 L 441.6875 493.109375 L 441.789063 493.125 L 441.886719 493.136719 L 442.089844 493.160156 L 442.1875 493.171875 L 442.289063 493.183594 L 442.386719 493.195313 L 442.589844 493.21875 L 442.6875 493.230469 L 442.789063 493.242188 L 442.886719 493.253906 L 443.089844 493.277344 L 443.1875 493.289063 L 443.390625 493.3125 L 443.488281 493.324219 L 443.589844 493.335938 L 443.6875 493.347656 L 443.789063 493.355469 L 443.890625 493.367188 L 443.988281 493.378906 L 444.089844 493.390625 L 444.1875 493.402344 L 444.289063 493.414063 L 444.390625 493.421875 L 444.488281 493.433594 L 444.589844 493.445313 L 444.6875 493.457031 L 444.789063 493.464844 L 444.890625 493.476563 L 444.988281 493.488281 L 445.089844 493.496094 L 445.1875 493.507813 L 445.289063 493.519531 L 445.390625 493.527344 L 445.488281 493.539063 L 445.589844 493.550781 L 445.6875 493.558594 L 445.789063 493.570313 L 445.890625 493.578125 L 445.988281 493.589844 L 446.089844 493.597656 L 446.1875 493.609375 L 446.289063 493.621094 L 446.390625 493.628906 L 446.488281 493.640625 L 446.589844 493.648438 L 446.6875 493.65625 L 446.789063 493.667969 L 446.890625 493.675781 L 446.988281 493.6875 L 447.089844 493.695313 L 447.1875 493.707031 L 447.390625 493.722656 L 447.488281 493.734375 L 447.691406 493.75 L 447.789063 493.761719 L 447.890625 493.769531 L 447.988281 493.777344 L 448.089844 493.789063 L 448.191406 493.796875 L 448.289063 493.804688 L 448.390625 493.816406 L 448.488281 493.824219 L 448.691406 493.839844 L 448.789063 493.847656 L 448.890625 493.859375 L 448.988281 493.867188 L 449.191406 493.882813 L 449.289063 493.890625 L 449.390625 493.898438 L 449.488281 493.910156 L 449.691406 493.925781 L 449.789063 493.933594 L 449.890625 493.941406 L 449.988281 493.949219 L 450.191406 493.964844 L 450.289063 493.972656 L 450.390625 493.980469 L 450.488281 493.988281 L 450.691406 494.003906 L 450.789063 494.011719 L 450.890625 494.019531 L 450.988281 494.027344 L 451.191406 494.042969 L 451.289063 494.050781 L 451.492188 494.066406 L 451.589844 494.074219 L 451.691406 494.078125 L 451.789063 494.085938 L 451.992188 494.101563 L 452.089844 494.109375 L 452.191406 494.117188 L 452.289063 494.121094 L 452.492188 494.136719 L 452.589844 494.144531 L 452.691406 494.152344 L 452.789063 494.15625 L 452.992188 494.171875 L 453.089844 494.179688 L 453.191406 494.183594 L 453.289063 494.191406 L 453.390625 494.199219 L 453.492188 494.203125 L 453.589844 494.210938 L 453.691406 494.21875 L 453.789063 494.222656 L 453.992188 494.238281 L 454.089844 494.242188 L 454.191406 494.25 L 454.289063 494.257813 L 454.390625 494.261719 L 454.492188 494.269531 L 454.589844 494.273438 L 454.691406 494.28125 L 454.789063 494.285156 L 454.992188 494.300781 L 455.089844 494.304688 L 455.191406 494.3125 L 455.292969 494.316406 L 455.390625 494.324219 L 455.492188 494.328125 L 455.589844 494.335938 L 455.691406 494.339844 L 455.792969 494.347656 L 455.890625 494.351563 L 455.992188 494.355469 L 456.089844 494.363281 L 456.191406 494.367188 L 456.292969 494.375 L 456.390625 494.378906 L 456.492188 494.386719 L 456.589844 494.390625 L 456.691406 494.394531 L 456.792969 494.402344 L 456.890625 494.40625 L 456.992188 494.410156 L 457.089844 494.417969 L 457.292969 494.425781 L 457.390625 494.433594 L 457.492188 494.4375 L 457.589844 494.441406 L 457.691406 494.449219 L 457.792969 494.453125 L 457.890625 494.457031 L 457.992188 494.460938 L 458.089844 494.46875 L 458.292969 494.476563 L 458.390625 494.480469 L 458.492188 494.488281 L 458.589844 494.492188 L 458.792969 494.5 L 458.890625 494.507813 L 459.09375 494.515625 L 459.191406 494.519531 L 459.292969 494.523438 L 459.390625 494.527344 L 459.492188 494.535156 L 459.59375 494.539063 L 459.691406 494.542969 L 459.792969 494.546875 L 459.890625 494.550781 L 460.09375 494.558594 L 460.191406 494.5625 L 460.292969 494.566406 L 460.390625 494.570313 L 460.492188 494.578125 L 460.59375 494.582031 L 460.691406 494.585938 L 460.792969 494.589844 L 460.890625 494.59375 L 461.09375 494.601563 L 461.191406 494.605469 L 461.292969 494.609375 L 461.390625 494.613281 L 461.59375 494.621094 L 461.691406 494.625 L 461.792969 494.628906 L 461.890625 494.632813 L 462.09375 494.640625 L 462.191406 494.644531 L 462.292969 494.644531 L 462.390625 494.648438 L 462.59375 494.65625 L 462.691406 494.660156 L 462.894531 494.667969 L 462.992188 494.671875 L 463.09375 494.675781 L 463.191406 494.679688 L 463.292969 494.679688 L 463.394531 494.683594 L 463.492188 494.6875 L 463.59375 494.691406 L 463.691406 494.695313 L 463.792969 494.699219 L 463.894531 494.699219 L 463.992188 494.703125 L 464.09375 494.707031 L 464.191406 494.710938 L 464.394531 494.71875 L 464.492188 494.71875 L 464.59375 494.722656 L 464.691406 494.726563 L 464.792969 494.730469 L 464.894531 494.730469 L 464.992188 494.734375 L 465.09375 494.738281 L 465.191406 494.742188 L 465.292969 494.742188 L 465.394531 494.746094 L 465.492188 494.75 L 465.59375 494.753906 L 465.691406 494.753906 L 465.894531 494.761719 L 465.992188 494.761719 L 466.09375 494.765625 L 466.191406 494.769531 L 466.292969 494.769531 L 466.394531 494.773438 L 466.492188 494.777344 L 466.59375 494.777344 L 466.691406 494.78125 L 466.792969 494.785156 L 466.894531 494.785156 L 466.992188 494.789063 L 467.09375 494.792969 L 467.195313 494.792969 L 467.292969 494.796875 L 467.394531 494.800781 L 467.492188 494.800781 L 467.59375 494.804688 L 467.695313 494.804688 L 467.792969 494.808594 L 467.894531 494.8125 L 467.992188 494.8125 L 468.09375 494.816406 L 468.195313 494.816406 L 468.292969 494.820313 L 468.394531 494.820313 L 468.492188 494.824219 L 468.59375 494.828125 L 468.695313 494.828125 L 468.792969 494.832031 L 468.894531 494.832031 L 468.992188 494.835938 L 469.09375 494.835938 L 469.195313 494.839844 L 469.292969 494.839844 L 469.394531 494.84375 L 469.492188 494.84375 L 469.59375 494.847656 L 469.695313 494.847656 L 469.792969 494.851563 L 469.894531 494.851563 L 469.992188 494.855469 L 470.09375 494.855469 L 470.195313 494.859375 L 470.292969 494.859375 L 470.394531 494.863281 L 470.492188 494.863281 L 470.59375 494.867188 L 470.695313 494.867188 L 470.792969 494.871094 L 470.996094 494.871094 L 471.09375 494.875 L 471.195313 494.875 L 471.292969 494.878906 L 471.394531 494.878906 L 471.496094 494.882813 L 471.695313 494.882813 L 471.792969 494.886719 L 471.894531 494.886719 L 471.996094 494.890625 L 472.195313 494.890625 L 472.292969 494.894531 L 472.394531 494.894531 L 472.496094 494.898438 L 472.695313 494.898438 L 472.792969 494.902344 L 472.996094 494.902344 L 473.09375 494.90625 L 473.292969 494.90625 L 473.394531 494.910156 L 473.59375 494.910156 L 473.695313 494.914063 L 473.894531 494.914063 L 473.996094 494.917969 L 474.195313 494.917969 L 474.292969 494.921875 L 474.496094 494.921875 L 474.59375 494.925781 L 474.894531 494.925781 L 474.996094 494.929688 L 475.195313 494.929688 L 475.296875 494.933594 L 475.59375 494.933594 L 475.695313 494.9375 L 475.996094 494.9375 L 476.09375 494.941406 L 476.394531 494.941406 L 476.496094 494.945313 L 476.796875 494.945313 L 476.894531 494.949219 L 477.195313 494.949219 L 477.296875 494.953125 L 477.695313 494.953125 L 477.796875 494.957031 L 478.195313 494.957031 L 478.296875 494.960938 L 478.796875 494.960938 L 478.894531 494.964844 L 479.394531 494.964844 L 479.496094 494.96875 L 479.996094 494.96875 L 480.097656 494.972656 L 480.695313 494.972656 L 480.796875 494.976563 L 481.496094 494.976563 L 481.597656 494.980469 L 482.394531 494.980469 L 482.496094 494.984375 L 483.496094 494.984375 L 483.597656 494.988281 L 484.898438 494.988281 L 484.996094 494.992188 L 486.699219 494.992188 L 486.796875 494.996094 L 489.898438 494.996094 L 489.996094 495 L 500 495 "/>
<path style="fill:none;stroke-width:10;stroke-linecap:butt;stroke-linejoin:miter;stroke:rgb(79.6%,23.5%,20%);stroke-opacity:1;stroke-miterlimit:10;" d="M 34.496094 0 L 34.496094 250 "/>
<path style="fill:none;stroke-width:10;stroke-linecap:butt;stroke-linejoin:miter;stroke:rgb(79.6%,23.5%,20%);stroke-opacity:1;stroke-miterlimit:10;" d="M 292.902344 0 L 292.902344 250 "/>
</g>
</svg>
